<svg width="32" height="31" viewBox="0 0 32 31" fill="none" xmlns="http://www.w3.org/2000/svg">
<path d="M31.6406 8.35938C31.4427 8.07812 31.1771 7.9375 30.8438 7.9375H9.625L8 2.40625C7.85417 1.90625 7.65625 1.47917 7.40625 1.125C7.15625 0.770833 6.89062 0.520833 6.60938 0.375C6.32812 0.229167 6.08333 0.130208 5.875 0.078125C5.66667 0.0260417 5.45833 0 5.25 0H0.96875C0.697917 0 0.46875 0.09375 0.28125 0.28125C0.09375 0.46875 0 0.708333 0 1C0 1.16667 0.0416667 1.32812 0.125 1.48438C0.208333 1.64062 0.328125 1.76042 0.484375 1.84375C0.640625 1.92708 0.802083 1.96875 0.96875 1.96875H5.25C5.33333 1.96875 5.41146 1.97917 5.48438 2C5.55729 2.02083 5.65625 2.10938 5.78125 2.26562C5.90625 2.42188 6.01042 2.65625 6.09375 2.96875L11.625 23.2812C11.6667 23.4062 11.7344 23.526 11.8281 23.6406C11.9219 23.7552 12.0312 23.8438 12.1562 23.9062C12.2812 23.9688 12.4167 24 12.5625 24H26.0625C26.2708 24 26.4635 23.9375 26.6406 23.8125C26.8177 23.6875 26.9375 23.5312 27 23.3438L31.7812 9.28125C31.8854 8.94792 31.8385 8.64062 31.6406 8.35938ZM25.375 22H13.3438L10.1562 9.9375H29.4062L25.375 22ZM23.4062 26C22.7188 26 22.1302 26.2448 21.6406 26.7344C21.151 27.224 20.9062 27.8125 20.9062 28.5C20.9062 29.1875 21.151 29.776 21.6406 30.2656C22.1302 30.7552 22.7188 31 23.4062 31C24.0938 31 24.6823 30.7552 25.1719 30.2656C25.6615 29.776 25.9062 29.1875 25.9062 28.5C25.9062 27.8125 25.6615 27.224 25.1719 26.7344C24.6823 26.2448 24.0938 26 23.4062 26ZM14.4062 26C13.9479 26 13.526 26.1146 13.1406 26.3438C12.7552 26.5729 12.4531 26.875 12.2344 27.25C12.0156 27.625 11.9062 28.0417 11.9062 28.5C11.9062 29.1875 12.151 29.776 12.6406 30.2656C13.1302 30.7552 13.7188 31 14.4062 31C15.0938 31 15.6823 30.7552 16.1719 30.2656C16.6615 29.776 16.9062 29.1875 16.9062 28.5C16.9062 28.3333 16.8906 28.1667 16.8594 28C16.8281 27.8333 16.7812 27.6771 16.7188 27.5312C16.6562 27.3854 16.5781 27.2448 16.4844 27.1094C16.3906 26.974 16.2865 26.849 16.1719 26.7344C16.0573 26.6198 15.9323 26.5156 15.7969 26.4219C15.6615 26.3281 15.5208 26.25 15.375 26.1875C15.2292 26.125 15.0729 26.0781 14.9062 26.0469C14.7396 26.0156 14.5729 26 14.4062 26Z" fill="#CBCFD4"/>
</svg>
