<svg width="19" height="19" viewBox="0 0 19 19" fill="none" xmlns="http://www.w3.org/2000/svg">
<path fill-rule="evenodd" clip-rule="evenodd" d="M18.4429 0.561824C18.799 0.918018 18.9991 1.40106 18.9991 1.90472C18.9991 2.40837 18.799 2.89141 18.4429 3.24761L12.1859 9.5005L18.4429 15.7534C18.7996 16.1101 19 16.5938 19 17.0982C19 17.6026 18.7996 18.0863 18.4429 18.443C18.0863 18.7996 17.6025 19 17.0981 19C16.5937 19 16.1099 18.7996 15.7532 18.443L9.5 12.1863L3.24678 18.443C3.07017 18.6196 2.86051 18.7597 2.62975 18.8552C2.399 18.9508 2.15168 19 1.90192 19C1.65216 19 1.40484 18.9508 1.17409 18.8552C0.943335 18.7597 0.733669 18.6196 0.55706 18.443C0.38045 18.2664 0.240356 18.0567 0.144775 17.826C0.0491947 17.5952 0 17.3479 0 17.0982C0 16.8484 0.0491947 16.6011 0.144775 16.3704C0.240356 16.1396 0.38045 15.93 0.55706 15.7534L6.81408 9.5005L0.55706 3.24761C0.200381 2.89095 0 2.40721 0 1.90282C0 1.39842 0.200381 0.914686 0.55706 0.558025C0.913739 0.201365 1.3975 0.000994474 1.90192 0.000994474C2.40634 0.000994474 2.8901 0.201365 3.24678 0.558025L9.5 6.81472L15.7532 0.558025C15.9297 0.381139 16.1393 0.240798 16.3701 0.145043C16.6008 0.0492876 16.8482 0 17.0981 0C17.3479 0 17.5953 0.0492876 17.8261 0.145043C18.0569 0.240798 18.2665 0.384937 18.4429 0.561824Z" fill="white"/>
</svg>
