<svg width="120" height="116" viewBox="0 0 120 116" fill="none" xmlns="http://www.w3.org/2000/svg">
<path d="M119.5 58C119.5 89.7405 92.8771 115.5 60 115.5C27.1229 115.5 0.5 89.7405 0.5 58C0.5 26.2595 27.1229 0.5 60 0.5C92.8771 0.5 119.5 26.2595 119.5 58Z" fill="url(#paint0_linear)" stroke="#ECECEC"/>
<path d="M81.7489 46.9684L72.5401 35.4554C72.3091 35.1683 71.9676 35 71.5961 35H47.414C47.0424 35 46.701 35.1683 46.47 35.4554L37.2611 46.9684C37.0904 47.1763 37 47.4336 37 47.7009V80.0621C37 80.7154 37.5423 81.25 38.2051 81.25H80.7949C81.4577 81.25 82 80.7154 82 80.0621V47.7009C82 47.4336 81.9096 47.1763 81.7489 46.9684ZM78.4751 46.711H60.7101V37.3759H71.0136L78.4751 46.711ZM47.9964 37.3759H58.2999V46.711H40.5349L47.9964 37.3759ZM39.4102 78.8741V49.0868H79.5898V78.8741H39.4102Z" fill="#545252"/>
<path d="M72.4195 57.4914H47.7754C47.1126 57.4914 46.5703 58.0259 46.5703 58.6793C46.5703 59.3327 47.1126 59.8672 47.7754 59.8672H72.4195C73.0823 59.8672 73.6245 59.3327 73.6245 58.6793C73.6245 58.0259 73.0823 57.4914 72.4195 57.4914Z" fill="#545252"/>
<path d="M67.7397 63.0648H52.4552C51.7924 63.0648 51.2501 63.5994 51.2501 64.2527C51.2501 64.9061 51.7924 65.4407 52.4552 65.4407H67.7297C68.3925 65.4407 68.9348 64.9061 68.9348 64.2527C68.9348 63.5994 68.4025 63.0648 67.7397 63.0648Z" fill="#545252"/>
<path d="M67.7397 68.6282H52.4552C51.7924 68.6282 51.2501 69.1628 51.2501 69.8161C51.2501 70.4695 51.7924 71.0041 52.4552 71.0041H67.7297C68.3925 71.0041 68.9348 70.4695 68.9348 69.8161C68.9348 69.1628 68.4025 68.6282 67.7397 68.6282Z" fill="#545252"/>
<defs>
<linearGradient id="paint0_linear" x1="0" y1="56.7111" x2="120" y2="56.7111" gradientUnits="userSpaceOnUse">
<stop stop-color="#D8A846"/>
<stop offset="0.15625" stop-color="#E1B54C"/>
<stop offset="0.40625" stop-color="#EFD370"/>
<stop offset="0.645833" stop-color="#EFD072"/>
<stop offset="1" stop-color="#D8A846"/>
</linearGradient>
</defs>
</svg>
