<svg width="120" height="116" viewBox="0 0 120 116" fill="none" xmlns="http://www.w3.org/2000/svg">
<path d="M119.5 58C119.5 89.7405 92.8771 115.5 60 115.5C27.1229 115.5 0.5 89.7405 0.5 58C0.5 26.2595 27.1229 0.5 60 0.5C92.8771 0.5 119.5 26.2595 119.5 58Z" fill="url(#paint0_linear)" stroke="#ECECEC"/>
<path d="M68.5415 56.0762C68.0301 55.6237 67.2031 55.6237 66.6917 56.0762L51.4804 69.546C50.969 69.9986 50.969 70.7303 51.4804 71.1828C51.7306 71.4043 52.0679 71.5198 52.4052 71.5198C52.7425 71.5198 53.069 71.4043 53.3301 71.1828L68.5415 57.7226C69.0529 57.2605 69.0529 56.5287 68.5415 56.0762Z" fill="#545252"/>
<path d="M65.7234 64.1061C64.5265 64.1061 63.3949 64.5201 62.5353 65.2711C60.7835 66.8213 60.7835 69.3535 62.5353 70.9036C63.384 71.6546 64.5156 72.0686 65.7234 72.0686C66.9311 72.0686 68.0519 71.6546 68.9115 70.9036C69.771 70.1526 70.228 69.1513 70.228 68.0826C70.228 67.0138 69.7602 66.0221 68.9115 65.2615C68.0628 64.5009 66.9203 64.1061 65.7234 64.1061ZM67.0617 69.2765C66.7027 69.5942 66.2348 69.7675 65.7234 69.7675C65.2229 69.7675 64.7441 69.5942 64.385 69.2765C63.6451 68.6217 63.6451 67.5626 64.385 66.9079C64.7441 66.5902 65.212 66.4169 65.7234 66.4169C66.2239 66.4169 66.7027 66.5902 67.0617 66.9079C67.4208 67.2257 67.6166 67.6397 67.6166 68.0922C67.6166 68.5447 67.4099 68.9587 67.0617 69.2765Z" fill="#545252"/>
<path d="M57.4649 62.0168C59.2167 60.4666 59.2167 57.9344 57.4649 56.3843C56.6162 55.6333 55.4846 55.2193 54.2768 55.2193C53.08 55.2193 51.9483 55.6333 51.0888 56.3843C49.3369 57.9344 49.3369 60.4666 51.0888 62.0168C51.9375 62.7678 53.0691 63.1818 54.2768 63.1818C55.4846 63.1818 56.6162 62.7678 57.4649 62.0168ZM52.9385 58.0211C53.2976 57.7033 53.7654 57.53 54.2768 57.53C54.7882 57.53 55.2561 57.7033 55.6152 58.0211C56.3551 58.6758 56.3551 59.7349 55.6152 60.3896C55.2561 60.7074 54.7882 60.8807 54.2768 60.8807C53.7654 60.8807 53.2976 60.7074 52.9385 60.3896C52.2095 59.7349 52.2095 58.6758 52.9385 58.0211Z" fill="#545252"/>
<path d="M81 75.3133L77.9751 45.1481C77.9207 44.5512 77.3549 44.0987 76.6694 44.0987H70.2933C70.2824 39.0824 65.6689 35 60 35C54.3311 35 49.7176 39.0824 49.7067 44.0987H43.3306C42.656 44.0987 42.0902 44.5512 42.0249 45.1481L39 75.3133C39 75.3518 39 75.3807 39 75.4192C39 78.7795 42.4927 81.5139 46.7798 81.5139H73.2202C77.5073 81.5139 81 78.7795 81 75.4192C81 75.3807 81 75.3518 81 75.3133ZM60 37.3108C64.2326 37.3108 67.671 40.3533 67.6819 44.0987H52.3181C52.329 40.3533 55.7674 37.3108 60 37.3108ZM73.2202 79.1935H46.7798C43.9508 79.1935 41.644 77.5278 41.6114 75.4578L44.5275 46.4094H49.7067V50.4629C49.7067 51.0984 50.2943 51.6183 51.0124 51.6183C51.7306 51.6183 52.3181 51.0984 52.3181 50.4629V46.4094H67.6819V50.4629C67.6819 51.0984 68.2694 51.6183 68.9876 51.6183C69.7057 51.6183 70.2933 51.0984 70.2933 50.4629V46.4094H75.4725L78.3886 75.4674C78.356 77.5278 76.0492 79.1935 73.2202 79.1935Z" fill="#545252"/>
<defs>
<linearGradient id="paint0_linear" x1="0" y1="56.7111" x2="120" y2="56.7111" gradientUnits="userSpaceOnUse">
<stop stop-color="#D8A846"/>
<stop offset="0.15625" stop-color="#E1B54C"/>
<stop offset="0.40625" stop-color="#EFD370"/>
<stop offset="0.645833" stop-color="#EFD072"/>
<stop offset="1" stop-color="#D8A846"/>
</linearGradient>
</defs>
</svg>
