<svg width="120" height="116" viewBox="0 0 120 116" fill="none" xmlns="http://www.w3.org/2000/svg">
<path d="M119.5 58C119.5 89.7405 92.8771 115.5 60 115.5C27.1229 115.5 0.5 89.7405 0.5 58C0.5 26.2595 27.1229 0.5 60 0.5C92.8771 0.5 119.5 26.2595 119.5 58Z" fill="url(#paint0_linear)" stroke="#ECECEC"/>
<path d="M62.1363 71.26H33.1983C32.536 71.26 31.9988 70.7043 31.9988 70.0193V46.42H83.0402V49.5218C83.0402 50.3748 83.7149 51.0727 84.5396 51.0727C85.3642 51.0727 86.039 50.3748 86.039 49.5218V38.3425C86.039 35.9515 84.1522 34 81.8407 34H33.1983C30.8742 34 29 35.9515 29 38.3425V70.0193C29 72.4102 30.8867 74.3618 33.1983 74.3618H62.1488C62.9735 74.3618 63.6482 73.6639 63.6482 72.8109C63.6482 71.9579 62.9735 71.26 62.1363 71.26ZM33.1983 37.1018H81.8407C82.5029 37.1018 83.0402 37.6575 83.0402 38.3425V43.3182H31.9863V38.3425C31.9863 37.6575 32.536 37.1018 33.1983 37.1018Z" fill="#545252"/>
<path d="M59.0127 57.9353C59.0127 57.0824 58.3379 56.3845 57.5133 56.3845H39.4957C38.6711 56.3845 37.9963 57.0824 37.9963 57.9353C37.9963 58.7883 38.6711 59.4862 39.4957 59.4862H57.5133C58.3504 59.4862 59.0127 58.7883 59.0127 57.9353Z" fill="#545252"/>
<path d="M39.4957 61.9417C38.6711 61.9417 37.9963 62.6396 37.9963 63.4926C37.9963 64.3456 38.6711 65.0435 39.4957 65.0435H46.7052C47.5299 65.0435 48.2046 64.3456 48.2046 63.4926C48.2046 62.6396 47.5299 61.9417 46.7052 61.9417H39.4957Z" fill="#545252"/>
<path d="M39.3207 53.8642H57.3382C58.1629 53.8642 58.8376 53.1663 58.8376 52.3133C58.8376 51.4603 58.1629 50.7625 57.3382 50.7625H39.3207C38.496 50.7625 37.8213 51.4603 37.8213 52.3133C37.8213 53.1663 38.4835 53.8642 39.3207 53.8642Z" fill="#545252"/>
<path d="M88.5129 64.5395H86.3138V60.9208C86.3138 56.4362 82.7778 52.7787 78.442 52.7787C74.1063 52.7787 70.5703 56.4362 70.5703 60.9208V64.5395H68.3712C67.5465 64.5395 66.8718 65.2374 66.8718 66.0904V79.5314C66.8718 80.3844 67.5465 81.0823 68.3712 81.0823H88.5004C89.3251 81.0823 89.9998 80.3844 89.9998 79.5314V66.0904C90.0123 65.2245 89.3375 64.5395 88.5129 64.5395ZM73.5691 60.9079C73.5691 58.1292 75.7557 55.8675 78.442 55.8675C81.1284 55.8675 83.315 58.1292 83.315 60.9079V64.5266H73.5691V60.9079ZM87.0135 77.9676H69.8706V67.6284H87.001V77.9676H87.0135Z" fill="#545252"/>
<defs>
<linearGradient id="paint0_linear" x1="0" y1="56.7111" x2="120" y2="56.7111" gradientUnits="userSpaceOnUse">
<stop stop-color="#D8A846"/>
<stop offset="0.15625" stop-color="#E1B54C"/>
<stop offset="0.40625" stop-color="#EFD370"/>
<stop offset="0.645833" stop-color="#EFD072"/>
<stop offset="1" stop-color="#D8A846"/>
</linearGradient>
</defs>
</svg>
