<svg width="120" height="116" viewBox="0 0 120 116" fill="none" xmlns="http://www.w3.org/2000/svg">
<path d="M119.5 58C119.5 89.7405 92.8771 115.5 60 115.5C27.1229 115.5 0.5 89.7405 0.5 58C0.5 26.2595 27.1229 0.5 60 0.5C92.8771 0.5 119.5 26.2595 119.5 58Z" fill="url(#paint0_linear)" stroke="#ECECEC"/>
<path d="M81.7841 35H38.2159C37.5471 35 37 35.5327 37 36.1839C37 36.835 37.5471 37.3677 38.2159 37.3677H40.8401V80.0263C40.8401 80.4603 41.0833 80.8648 41.4784 81.072C41.8736 81.2792 42.3498 81.2594 42.7247 81.0128L48.0035 77.5895L53.3026 81.0227C53.7079 81.289 54.2449 81.289 54.6502 81.0227L59.9291 77.5993L65.2282 81.0325C65.6335 81.2989 66.1705 81.2989 66.5758 81.0325L71.8546 77.6092L77.1537 81.0424C77.3564 81.1707 77.5894 81.2397 77.8225 81.2397C78.015 81.2397 78.2176 81.1904 78.4 81.1016C78.7952 80.8944 79.0383 80.4899 79.0383 80.0559L79.0181 37.3973H81.7841C82.4529 37.3973 83 36.8646 83 36.2135C83 35.5623 82.4529 35 81.7841 35ZM76.6167 77.8164L72.5335 75.1724C72.1282 74.906 71.5912 74.906 71.1859 75.1724L65.907 78.6056L60.6079 75.1724C60.2026 74.906 59.6656 74.906 59.2604 75.1724L53.9815 78.5958L48.6824 75.1724C48.2771 74.906 47.7401 74.906 47.3348 75.1724L43.2718 77.8065V37.3579H76.6066L76.6167 77.8164Z" fill="#333333"/>
<path d="M48.8648 53.9024H61.6009C62.2696 53.9024 62.8168 53.3697 62.8168 52.7185C62.8168 52.0674 62.2696 51.5347 61.6009 51.5347H48.8648C48.1961 51.5347 47.6489 52.0674 47.6489 52.7185C47.6489 53.3697 48.1859 53.9024 48.8648 53.9024Z" fill="#333333"/>
<path d="M48.8648 58.0162H58.4093C59.078 58.0162 59.6251 57.4835 59.6251 56.8324C59.6251 56.1813 59.078 55.6485 58.4093 55.6485H48.8648C48.1961 55.6485 47.6489 56.1813 47.6489 56.8324C47.6489 57.4835 48.1859 58.0162 48.8648 58.0162Z" fill="#333333"/>
<path d="M67.9639 53.9024H71.1454C71.8141 53.9024 72.3613 53.3697 72.3613 52.7185C72.3613 52.0674 71.8141 51.5347 71.1454 51.5347H67.9639C67.2952 51.5347 66.748 52.0674 66.748 52.7185C66.748 53.3697 67.2851 53.9024 67.9639 53.9024Z" fill="#333333"/>
<path d="M67.9639 58.0162H71.1454C71.8141 58.0162 72.3613 57.4835 72.3613 56.8324C72.3613 56.1813 71.8141 55.6485 71.1454 55.6485H67.9639C67.2952 55.6485 66.748 56.1813 66.748 56.8324C66.748 57.4835 67.2851 58.0162 67.9639 58.0162Z" fill="#333333"/>
<path d="M48.8648 44.4019H61.6009C62.2696 44.4019 62.8168 43.8691 62.8168 43.218C62.8168 42.5669 62.2696 42.0341 61.6009 42.0341H48.8648C48.1961 42.0341 47.6489 42.5669 47.6489 43.218C47.6489 43.8691 48.1859 44.4019 48.8648 44.4019Z" fill="#333333"/>
<path d="M48.8648 48.5059H58.4093C59.078 48.5059 59.6251 47.9731 59.6251 47.322C59.6251 46.6709 59.078 46.1381 58.4093 46.1381H48.8648C48.1961 46.1381 47.6489 46.6709 47.6489 47.322C47.6489 47.9731 48.1859 48.5059 48.8648 48.5059Z" fill="#333333"/>
<path d="M67.9639 44.4019H71.1454C71.8141 44.4019 72.3613 43.8691 72.3613 43.218C72.3613 42.5669 71.8141 42.0341 71.1454 42.0341H67.9639C67.2952 42.0341 66.748 42.5669 66.748 43.218C66.748 43.8691 67.2851 44.4019 67.9639 44.4019Z" fill="#333333"/>
<path d="M67.9639 48.5059H71.1454C71.8141 48.5059 72.3613 47.9731 72.3613 47.322C72.3613 46.6709 71.8141 46.1381 71.1454 46.1381H67.9639C67.2952 46.1381 66.748 46.6709 66.748 47.322C66.748 47.9731 67.2851 48.5059 67.9639 48.5059Z" fill="#333333"/>
<path d="M48.8648 63.5212H61.6009C62.2696 63.5212 62.8168 62.9885 62.8168 62.3374C62.8168 61.6862 62.2696 61.1535 61.6009 61.1535H48.8648C48.1961 61.1535 47.6489 61.6862 47.6489 62.3374C47.6489 62.9885 48.1859 63.5212 48.8648 63.5212Z" fill="#333333"/>
<path d="M48.8648 67.6253H58.4093C59.078 67.6253 59.6251 67.0926 59.6251 66.4415C59.6251 65.7904 59.078 65.2576 58.4093 65.2576H48.8648C48.1961 65.2576 47.6489 65.7904 47.6489 66.4415C47.6489 67.0926 48.1859 67.6253 48.8648 67.6253Z" fill="#333333"/>
<path d="M67.9639 63.5212H71.1454C71.8141 63.5212 72.3613 62.9885 72.3613 62.3374C72.3613 61.6862 71.8141 61.1535 71.1454 61.1535H67.9639C67.2952 61.1535 66.748 61.6862 66.748 62.3374C66.748 62.9885 67.2851 63.5212 67.9639 63.5212Z" fill="#333333"/>
<path d="M67.9639 67.6253H71.1454C71.8141 67.6253 72.3613 67.0926 72.3613 66.4415C72.3613 65.7904 71.8141 65.2576 71.1454 65.2576H67.9639C67.2952 65.2576 66.748 65.7904 66.748 66.4415C66.748 67.0926 67.2851 67.6253 67.9639 67.6253Z" fill="#333333"/>
<defs>
<linearGradient id="paint0_linear" x1="0" y1="56.7111" x2="120" y2="56.7111" gradientUnits="userSpaceOnUse">
<stop stop-color="#D8A846"/>
<stop offset="0.15625" stop-color="#E1B54C"/>
<stop offset="0.40625" stop-color="#EFD370"/>
<stop offset="0.645833" stop-color="#EFD072"/>
<stop offset="1" stop-color="#D8A846"/>
</linearGradient>
</defs>
</svg>
