<svg width="120" height="116" viewBox="0 0 120 116" fill="none" xmlns="http://www.w3.org/2000/svg">
<path d="M119.5 58C119.5 89.7405 92.8771 115.5 60 115.5C27.1229 115.5 0.5 89.7405 0.5 58C0.5 26.2595 27.1229 0.5 60 0.5C92.8771 0.5 119.5 26.2595 119.5 58Z" fill="url(#paint0_linear)" stroke="#ECECEC"/>
<path d="M95.305 51.2643C93.376 49.1605 90.6499 47.9953 87.621 47.9953H80.6544V44.2731C80.6544 44.2083 80.6544 44.1436 80.6385 44.095C80.6385 44.0627 80.6225 44.0303 80.6225 44.0141C80.6225 43.9818 80.6066 43.9494 80.6066 43.917C80.6066 43.8847 80.5906 43.8523 80.5906 43.8199C80.5906 43.7876 80.5747 43.7552 80.5747 43.739C80.5587 43.7066 80.5587 43.6743 80.5428 43.6419C80.5269 43.6095 80.5269 43.5772 80.5109 43.561C80.495 43.5286 80.479 43.5124 80.479 43.4801C80.4631 43.4477 80.4471 43.4153 80.4312 43.3992C80.4153 43.3668 80.3993 43.3506 80.3834 43.3182C80.3674 43.2859 80.3515 43.2535 80.3356 43.2373C80.3196 43.205 80.3037 43.1888 80.2718 43.1564C80.2558 43.1402 80.2399 43.1079 80.224 43.0917C80.1921 43.0431 80.1443 42.9946 80.1124 42.9622C80.1124 42.9622 80.1124 42.9622 80.0964 42.946L72.8907 35.5664C72.524 35.1942 72.0458 35 71.5356 35H51.7837C51.2735 35 50.7953 35.2104 50.4286 35.5664L43.2229 42.8813C43.2229 42.8813 43.2229 42.8813 43.2069 42.8975C43.1591 42.946 43.1272 42.9784 43.0953 43.0269C43.0794 43.0431 43.0635 43.0755 43.0475 43.0917C43.0316 43.124 42.9997 43.1402 42.9838 43.1726C42.9678 43.205 42.9519 43.2373 42.9359 43.2535C42.92 43.2859 42.904 43.3021 42.8881 43.3344C42.8722 43.3668 42.8562 43.3992 42.8403 43.4153C42.8243 43.4477 42.8084 43.4639 42.8084 43.4963C42.7925 43.5286 42.7925 43.561 42.7765 43.5772C42.7606 43.6095 42.7606 43.6419 42.7446 43.6743C42.7287 43.7066 42.7287 43.739 42.7287 43.7552C42.7127 43.7876 42.7127 43.8199 42.7127 43.8523C42.7127 43.8847 42.6968 43.917 42.6968 43.9494C42.6968 43.9818 42.6809 44.0141 42.6809 44.0303C42.6809 44.095 42.6649 44.1598 42.6649 44.2083V74.9083C42.6649 75.9764 43.5258 76.8503 44.5779 76.8503H49.6156C50.2692 79.4558 52.6126 81.3978 55.3706 81.3978C58.1285 81.3978 60.472 79.4558 61.1256 76.8503H78.7254H81.308C81.9616 79.4558 84.3051 81.3978 87.063 81.3978C89.8369 81.3978 92.1644 79.4558 92.818 76.8503H96.4847C97.5368 76.8503 98.3977 75.9764 98.3977 74.9083V60.4727C98.4136 56.7019 97.3455 53.4976 95.305 51.2643ZM74.1342 42.3311H63.3415V38.9002H70.7386L74.1342 42.3311ZM52.5808 38.884H59.5155V42.3149H49.2011L52.5808 38.884ZM46.491 46.2151H76.8283V49.9373V73.0148H60.9184C60.8865 73.0148 60.8705 73.0148 60.8386 73.0148C59.93 70.8786 57.8256 69.3735 55.3865 69.3735C52.9315 69.3735 50.8272 70.8786 49.9185 73.031C49.8388 73.0148 49.7591 73.0148 49.6634 73.0148H46.491V46.2151ZM55.3865 77.5624C54.2228 77.5624 53.2663 76.5913 53.2663 75.41C53.2663 74.2286 54.2228 73.2576 55.3865 73.2576C56.5503 73.2576 57.5068 74.2286 57.5068 75.41C57.5068 76.5913 56.5503 77.5624 55.3865 77.5624ZM87.079 77.5624C85.9152 77.5624 84.9587 76.5913 84.9587 75.41C84.9587 74.2286 85.9152 73.2576 87.079 73.2576C88.2427 73.2576 89.1992 74.2286 89.1992 75.41C89.1992 76.5913 88.2587 77.5624 87.079 77.5624ZM94.5876 73.0148H92.547C91.6383 70.8786 89.534 69.3735 87.0949 69.3735C84.6558 69.3735 82.5515 70.8786 81.6428 73.0148H80.6703V51.8793H87.6369C92.005 51.8793 94.6035 55.116 94.6035 60.5374V73.0148H94.5876Z" fill="#545252"/>
<path d="M39.2056 50.1153H28.7318C27.6796 50.1153 26.8187 50.9892 26.8187 52.0573C26.8187 53.1254 27.6796 53.9994 28.7318 53.9994H39.2056C40.2577 53.9994 41.1186 53.1254 41.1186 52.0573C41.1186 50.9892 40.2577 50.1153 39.2056 50.1153Z" fill="#545252"/>
<path d="M39.2056 57.6729H22.913C21.8609 57.6729 21 58.5469 21 59.615C21 60.6831 21.8609 61.557 22.913 61.557H39.2056C40.2578 61.557 41.1186 60.6831 41.1186 59.615C41.1186 58.5469 40.2578 57.6729 39.2056 57.6729Z" fill="#545252"/>
<path d="M39.2056 65.2306H28.7318C27.6796 65.2306 26.8187 66.1045 26.8187 67.1726C26.8187 68.2407 27.6796 69.1146 28.7318 69.1146H39.2056C40.2577 69.1146 41.1186 68.2407 41.1186 67.1726C41.1186 66.1045 40.2577 65.2306 39.2056 65.2306Z" fill="#545252"/>
<defs>
<linearGradient id="paint0_linear" x1="0" y1="56.7111" x2="120" y2="56.7111" gradientUnits="userSpaceOnUse">
<stop stop-color="#D8A846"/>
<stop offset="0.15625" stop-color="#E1B54C"/>
<stop offset="0.40625" stop-color="#EFD370"/>
<stop offset="0.645833" stop-color="#EFD072"/>
<stop offset="1" stop-color="#D8A846"/>
</linearGradient>
</defs>
</svg>
