<svg width="16" height="14" viewBox="0 0 16 14" fill="none" xmlns="http://www.w3.org/2000/svg">
<path d="M7.78798 3.63309L2.66659 8.3784V13.5C2.66659 13.6326 2.71342 13.7598 2.79677 13.8535C2.88012 13.9473 2.99316 14 3.11104 14L6.22382 13.9909C6.3413 13.9902 6.45378 13.9373 6.53665 13.8436C6.61952 13.7499 6.66604 13.6231 6.66604 13.4909V10.5C6.66604 10.3674 6.71286 10.2402 6.79621 10.1464C6.87956 10.0526 6.99261 9.99996 7.11048 9.99996H8.88826C9.00614 9.99996 9.11918 10.0526 9.20253 10.1464C9.28588 10.2402 9.33271 10.3674 9.33271 10.5V13.4887C9.33252 13.5545 9.34388 13.6197 9.36614 13.6805C9.38839 13.7414 9.4211 13.7967 9.46239 13.8433C9.50368 13.8899 9.55273 13.9268 9.60675 13.9521C9.66076 13.9773 9.71867 13.9903 9.77715 13.9903L12.8888 14C13.0067 14 13.1197 13.9473 13.2031 13.8535C13.2864 13.7598 13.3333 13.6326 13.3333 13.5V8.37496L8.21298 3.63309C8.15279 3.5785 8.0778 3.54874 8.00048 3.54874C7.92317 3.54874 7.84818 3.5785 7.78798 3.63309V3.63309ZM15.8777 6.8584L13.5555 4.70496V0.376526C13.5555 0.27707 13.5204 0.181687 13.4579 0.111361C13.3953 0.0410348 13.3106 0.00152588 13.2221 0.00152588H11.6666C11.5782 0.00152588 11.4934 0.0410348 11.4309 0.111361C11.3684 0.181687 11.3333 0.27707 11.3333 0.376526V2.64559L8.84632 0.343713C8.60765 0.122769 8.30817 0.00196755 7.99909 0.00196755C7.69001 0.00196755 7.39053 0.122769 7.15187 0.343713L0.120484 6.8584C0.0867301 6.88979 0.0588045 6.92835 0.0383022 6.97188C0.0178 7.01541 0.00512304 7.06306 0.000995651 7.1121C-0.00313174 7.16115 0.00137135 7.21063 0.0142476 7.25772C0.0271239 7.3048 0.048121 7.34857 0.0760391 7.38653L0.784372 8.35528C0.812215 8.39336 0.84646 8.4249 0.88515 8.44808C0.923839 8.47125 0.966212 8.48562 1.00984 8.49035C1.05347 8.49508 1.0975 8.49009 1.13942 8.47565C1.18133 8.46121 1.2203 8.43762 1.25409 8.40621L7.78798 2.35184C7.84818 2.29725 7.92317 2.26749 8.00048 2.26749C8.0778 2.26749 8.15279 2.29725 8.21298 2.35184L14.7472 8.40621C14.7809 8.43762 14.8198 8.46124 14.8616 8.47573C14.9035 8.49022 14.9475 8.49528 14.9911 8.49064C15.0347 8.486 15.077 8.47173 15.1157 8.44867C15.1544 8.4256 15.1887 8.39419 15.2166 8.35621L15.9249 7.38746C15.9528 7.34929 15.9737 7.30529 15.9864 7.258C15.9992 7.21071 16.0035 7.16105 15.9991 7.11189C15.9947 7.06272 15.9817 7.01502 15.9609 6.97152C15.94 6.92802 15.9118 6.88957 15.8777 6.8584V6.8584Z" fill="#B0B0B0"/>
</svg>
