<svg width="9" height="13" viewBox="0 0 9 13" fill="none" xmlns="http://www.w3.org/2000/svg">
<path d="M8.77359 3.22174C8.75472 3.16522 8.7217 3.07572 8.67453 2.95326C8.62736 2.8308 8.59434 2.75072 8.57547 2.71304C8.17924 1.78986 7.59906 1.10688 6.83491 0.66413C6.07076 0.221377 5.27358 0 4.4434 0C3.36792 0 2.39623 0.353261 1.5283 1.05978C0.660377 1.7663 0.150943 2.76014 0 4.0413V4.57826L0.0283019 4.71957V4.91739C0.0660377 5.21884 0.165094 5.56268 0.325472 5.94891C0.485849 6.33514 0.632075 6.64601 0.764151 6.88152C0.896226 7.11703 1.10849 7.475 1.40094 7.95543C1.6934 8.43587 1.88679 8.75145 1.98113 8.90217C2.5283 9.82536 3.36792 11.1913 4.5 13C4.65094 12.7551 5.16981 11.8696 6.0566 10.3435C6.09434 10.287 6.16509 10.1739 6.26887 10.0043C6.37264 9.83478 6.4434 9.7029 6.48113 9.6087C6.51887 9.55217 6.58019 9.4721 6.66509 9.36848C6.75 9.26486 6.81132 9.18478 6.84906 9.12826C6.98113 8.88333 7.26887 8.41703 7.71226 7.72935C8.15566 7.04167 8.48113 6.46232 8.68868 5.9913C8.89623 5.52029 9 5.0587 9 4.60652V3.98478C9 3.77754 8.92453 3.52319 8.77359 3.22174ZM4.4717 6.01957C3.73585 6.01957 3.22642 5.66159 2.9434 4.94565C2.92453 4.85145 2.91509 4.71014 2.91509 4.52174V4.15435C2.91509 3.68333 3.07547 3.32065 3.39623 3.0663C3.71698 2.81196 4.09434 2.68478 4.5283 2.68478C5 2.68478 5.39151 2.84493 5.70283 3.16522C6.01415 3.48551 6.16981 3.88116 6.16981 4.35217C6.16981 4.82319 6.00472 5.21884 5.67453 5.53913C5.34434 5.85942 4.9434 6.01957 4.4717 6.01957Z" fill="white"/>
</svg>
