<svg width="31" height="29" viewBox="0 0 31 29" fill="none" xmlns="http://www.w3.org/2000/svg">
<path fill-rule="evenodd" clip-rule="evenodd" d="M5.18862 21.1071C5.38973 21.309 5.54383 21.5527 5.63995 21.821C5.73606 22.0893 5.77183 22.3754 5.74469 22.6591C5.60852 23.9719 5.35036 25.2691 4.97356 26.5341C7.67637 25.9082 9.32713 25.1836 10.0769 24.8039C10.5022 24.5885 10.992 24.5374 11.4526 24.6605C12.7728 25.0125 14.1336 25.1897 15.5 25.1875C23.2423 25.1875 29.0625 19.7489 29.0625 13.5625C29.0625 7.378 23.2423 1.9375 15.5 1.9375C7.75775 1.9375 1.9375 7.378 1.9375 13.5625C1.9375 16.4067 3.13294 19.0456 5.18862 21.1071ZM4.23344 28.6731C3.77438 28.7641 3.31384 28.8474 2.852 28.923C2.4645 28.985 2.17 28.582 2.32306 28.2216C2.4951 27.8159 2.65278 27.4043 2.79581 26.9874L2.80163 26.9681C3.28212 25.5731 3.6735 23.9688 3.81687 22.475C1.43956 20.0919 0 16.9725 0 13.5625C0 6.07212 6.94012 0 15.5 0C24.0599 0 31 6.07212 31 13.5625C31 21.0529 24.0599 27.125 15.5 27.125C13.9648 27.1271 12.436 26.9277 10.9527 26.5321C9.94519 27.0417 7.77712 27.9697 4.23344 28.6731Z" fill="white"/>
<path d="M9.6875 13.5625C9.6875 14.0764 9.48337 14.5692 9.12002 14.9325C8.75667 15.2959 8.26386 15.5 7.75 15.5C7.23614 15.5 6.74333 15.2959 6.37998 14.9325C6.01663 14.5692 5.8125 14.0764 5.8125 13.5625C5.8125 13.0486 6.01663 12.5558 6.37998 12.1925C6.74333 11.8291 7.23614 11.625 7.75 11.625C8.26386 11.625 8.75667 11.8291 9.12002 12.1925C9.48337 12.5558 9.6875 13.0486 9.6875 13.5625ZM17.4375 13.5625C17.4375 14.0764 17.2334 14.5692 16.87 14.9325C16.5067 15.2959 16.0139 15.5 15.5 15.5C14.9861 15.5 14.4933 15.2959 14.13 14.9325C13.7666 14.5692 13.5625 14.0764 13.5625 13.5625C13.5625 13.0486 13.7666 12.5558 14.13 12.1925C14.4933 11.8291 14.9861 11.625 15.5 11.625C16.0139 11.625 16.5067 11.8291 16.87 12.1925C17.2334 12.5558 17.4375 13.0486 17.4375 13.5625ZM25.1875 13.5625C25.1875 14.0764 24.9834 14.5692 24.62 14.9325C24.2567 15.2959 23.7639 15.5 23.25 15.5C22.7361 15.5 22.2433 15.2959 21.88 14.9325C21.5166 14.5692 21.3125 14.0764 21.3125 13.5625C21.3125 13.0486 21.5166 12.5558 21.88 12.1925C22.2433 11.8291 22.7361 11.625 23.25 11.625C23.7639 11.625 24.2567 11.8291 24.62 12.1925C24.9834 12.5558 25.1875 13.0486 25.1875 13.5625Z" fill="white"/>
</svg>
