<svg width="30" height="20" viewBox="0 0 30 20" fill="none" xmlns="http://www.w3.org/2000/svg">
<rect width="30" height="20" fill="url(#paint0_linear)"/>
<path d="M20.9206 7.50554C20.8398 7.3876 20.7313 7.32863 20.5952 7.32863H11.9304L11.2668 5.00907C11.2073 4.7994 11.1265 4.6203 11.0244 4.47177C10.9223 4.32325 10.8138 4.21841 10.699 4.15726C10.5841 4.0961 10.4842 4.0546 10.3991 4.03276C10.314 4.01092 10.2289 4 10.1439 4H8.39559C8.285 4 8.19142 4.03931 8.11485 4.11794C8.03828 4.19657 8 4.29704 8 4.41935C8 4.48925 8.01701 4.55696 8.05104 4.62248C8.08507 4.688 8.13399 4.73824 8.1978 4.77319C8.2616 4.80813 8.32753 4.8256 8.39559 4.8256H10.1439C10.1779 4.8256 10.2098 4.82997 10.2396 4.83871C10.2693 4.84745 10.3098 4.88458 10.3608 4.9501C10.4118 5.01562 10.4544 5.11391 10.4884 5.24496L12.7471 13.7631C12.7641 13.8155 12.7918 13.8658 12.8301 13.9138C12.8683 13.9619 12.913 13.999 12.9641 14.0252C13.0151 14.0514 13.0704 14.0645 13.1299 14.0645H18.6427C18.7278 14.0645 18.8065 14.0383 18.8788 13.9859C18.9511 13.9335 19 13.8679 19.0256 13.7893L20.978 7.89214C21.0205 7.75235 21.0014 7.62349 20.9206 7.50554ZM18.362 13.2258H13.449L12.1473 8.16734H20.0082L18.362 13.2258ZM17.558 14.9032C17.2773 14.9032 17.037 15.0059 16.837 15.2112C16.6371 15.4165 16.5371 15.6633 16.5371 15.9516C16.5371 16.2399 16.6371 16.4867 16.837 16.692C17.037 16.8973 17.2773 17 17.558 17C17.8388 17 18.0791 16.8973 18.279 16.692C18.479 16.4867 18.5789 16.2399 18.5789 15.9516C18.5789 15.6633 18.479 15.4165 18.279 15.2112C18.0791 15.0059 17.8388 14.9032 17.558 14.9032ZM13.8828 14.9032C13.6957 14.9032 13.5234 14.9513 13.366 15.0474C13.2086 15.1435 13.0853 15.2702 12.996 15.4274C12.9066 15.5847 12.862 15.7594 12.862 15.9516C12.862 16.2399 12.9619 16.4867 13.1618 16.692C13.3618 16.8973 13.6021 17 13.8828 17C14.1636 17 14.4039 16.8973 14.6038 16.692C14.8038 16.4867 14.9037 16.2399 14.9037 15.9516C14.9037 15.8817 14.8974 15.8118 14.8846 15.7419C14.8718 15.672 14.8527 15.6065 14.8272 15.5454C14.8016 15.4842 14.7697 15.4252 14.7315 15.3684C14.6932 15.3117 14.6506 15.2592 14.6038 15.2112C14.5571 15.1631 14.506 15.1195 14.4507 15.0801C14.3954 15.0408 14.338 15.0081 14.2784 14.9819C14.2189 14.9556 14.1551 14.936 14.087 14.9229C14.019 14.9098 13.9509 14.9032 13.8828 14.9032Z" fill="#333333"/>
<defs>
<linearGradient id="paint0_linear" x1="0" y1="9.77778" x2="30" y2="9.77778" gradientUnits="userSpaceOnUse">
<stop stop-color="#D8A846"/>
<stop offset="0.15625" stop-color="#E1B54C"/>
<stop offset="0.40625" stop-color="#EFD370"/>
<stop offset="0.645833" stop-color="#EFD072"/>
<stop offset="1" stop-color="#D8A846"/>
</linearGradient>
</defs>
</svg>
