<svg width="24" height="24" viewBox="0 0 24 24" fill="none" xmlns="http://www.w3.org/2000/svg">
<path d="M11.9999 6C5.74794 6 0.937443 11.508 0.937443 11.508L0.491943 12L0.937443 12.492C0.937443 12.492 5.32344 17.493 11.1562 17.9535C11.4344 17.988 11.7127 18 11.9999 18C12.2872 18 12.5654 17.988 12.8437 17.9528C18.6764 17.493 23.0624 12.4927 23.0624 12.4927L23.5079 12L23.0624 11.508C23.0624 11.508 18.2519 6 11.9999 6ZM11.9999 7.5C13.6522 7.5 15.1754 7.9515 16.4999 8.5545C16.9777 9.34575 17.2499 10.257 17.2499 11.25C17.2531 12.5428 16.7788 13.7913 15.918 14.7559C15.0572 15.7205 13.8706 16.3333 12.5857 16.4767C12.5707 16.4797 12.5534 16.4737 12.5392 16.4767C12.3599 16.485 12.1814 16.5 11.9999 16.5C11.8004 16.5 11.6077 16.488 11.4142 16.4767C10.1293 16.3333 8.94267 15.7205 8.08187 14.7559C7.22108 13.7913 6.74677 12.5428 6.74994 11.25C6.74994 10.2713 7.01394 9.36 7.47669 8.57775H7.45344C8.78769 7.96275 10.3297 7.5 11.9999 7.5ZM11.9999 9C11.403 9.0002 10.8306 9.23752 10.4086 9.65976C9.98668 10.082 9.74974 10.6546 9.74994 11.2515C9.75014 11.8484 9.98746 12.4208 10.4097 12.8428C10.8319 13.2648 11.4045 13.5017 12.0014 13.5015C12.297 13.5014 12.5897 13.4431 12.8627 13.3299C13.1357 13.2167 13.3838 13.0508 13.5927 12.8417C13.8017 12.6327 13.9674 12.3845 14.0804 12.1114C14.1934 11.8383 14.2515 11.5456 14.2514 11.25C14.2513 10.9544 14.193 10.6618 14.0798 10.3887C13.9666 10.1157 13.8008 9.86763 13.5917 9.6587C13.3826 9.44977 13.1344 9.28406 12.8613 9.17104C12.5882 9.05802 12.2955 8.9999 11.9999 9V9ZM5.43744 9.7035C5.31551 10.21 5.25259 10.729 5.24994 11.25C5.24994 12.5655 5.62494 13.7963 6.28119 14.8358C4.94979 14.0558 3.72808 13.1022 2.64819 12C3.49829 11.1424 4.43278 10.3727 5.43744 9.70275V9.7035ZM18.5624 9.7035C19.5671 10.3732 20.5016 11.1426 21.3517 12C20.2718 13.1022 19.0501 14.0558 17.7187 14.8358C18.3952 13.7623 18.7528 12.5188 18.7499 11.25C18.7499 10.7138 18.6794 10.2015 18.5624 9.70275V9.7035Z" fill="#ECCA71"/>
</svg>
