<svg width="24" height="24" viewBox="0 0 24 24" fill="none" xmlns="http://www.w3.org/2000/svg">
<path d="M23.8534 6.47177C23.7042 6.25403 23.5039 6.14516 23.2526 6.14516H7.25614L6.03107 1.8629C5.92113 1.47581 5.77193 1.14516 5.58345 0.870968C5.39498 0.596774 5.19473 0.403226 4.9827 0.290323C4.77067 0.177419 4.58613 0.100806 4.42907 0.0604839C4.27201 0.0201613 4.11495 0 3.95789 0H0.730325C0.526148 0 0.353383 0.0725806 0.21203 0.217742C0.0706766 0.362903 0 0.548387 0 0.774194C0 0.903226 0.0314118 1.02823 0.0942355 1.14919C0.157059 1.27016 0.247368 1.3629 0.365163 1.42742C0.482957 1.49194 0.604678 1.52419 0.730325 1.52419H3.95789C4.02072 1.52419 4.07961 1.53226 4.13458 1.54839C4.18955 1.56452 4.26416 1.63306 4.35839 1.75403C4.45263 1.875 4.53116 2.05645 4.59398 2.29839L8.7639 18.0242C8.79532 18.121 8.84636 18.2137 8.91704 18.3024C8.98771 18.3911 9.07017 18.4597 9.1644 18.5081C9.25864 18.5565 9.36073 18.5806 9.47067 18.5806H19.6481C19.8052 18.5806 19.9504 18.5323 20.0839 18.4355C20.2174 18.3387 20.3078 18.2177 20.3549 18.0726L23.9594 7.18548C24.0379 6.92742 24.0026 6.68952 23.8534 6.47177ZM19.1298 17.0323H10.0596L7.65664 7.69355H22.1689L19.1298 17.0323ZM17.6456 20.129C17.1273 20.129 16.6836 20.3185 16.3145 20.6976C15.9454 21.0766 15.7609 21.5323 15.7609 22.0645C15.7609 22.5968 15.9454 23.0524 16.3145 23.4315C16.6836 23.8105 17.1273 24 17.6456 24C18.1639 24 18.6076 23.8105 18.9767 23.4315C19.3458 23.0524 19.5303 22.5968 19.5303 22.0645C19.5303 21.5323 19.3458 21.0766 18.9767 20.6976C18.6076 20.3185 18.1639 20.129 17.6456 20.129ZM10.8606 20.129C10.5151 20.129 10.1971 20.2177 9.90651 20.3952C9.61595 20.5726 9.38821 20.8065 9.2233 21.0968C9.05839 21.3871 8.97593 21.7097 8.97593 22.0645C8.97593 22.5968 9.16048 23.0524 9.52957 23.4315C9.89866 23.8105 10.3423 24 10.8606 24C11.3789 24 11.8226 23.8105 12.1917 23.4315C12.5608 23.0524 12.7454 22.5968 12.7454 22.0645C12.7454 21.9355 12.7336 21.8065 12.71 21.6774C12.6865 21.5484 12.6511 21.4274 12.604 21.3145C12.5569 21.2016 12.498 21.0927 12.4273 20.9879C12.3566 20.8831 12.2781 20.7863 12.1917 20.6976C12.1053 20.6089 12.0111 20.5282 11.909 20.4556C11.8069 20.3831 11.7009 20.3226 11.591 20.2742C11.481 20.2258 11.3632 20.1895 11.2376 20.1653C11.1119 20.1411 10.9863 20.129 10.8606 20.129Z" fill="#CBCFD4"/>
</svg>
