<svg width="24" height="24" viewBox="0 0 24 24" fill="none" xmlns="http://www.w3.org/2000/svg">
<path fill-rule="evenodd" clip-rule="evenodd" d="M2.39998 4.80005C2.1878 4.80005 1.98432 4.88433 1.83429 5.03436C1.68426 5.18439 1.59998 5.38788 1.59998 5.60005C1.59998 5.81222 1.68426 6.01571 1.83429 6.16573C1.98432 6.31576 2.1878 6.40005 2.39998 6.40005H21.6C21.8121 6.40005 22.0156 6.31576 22.1657 6.16573C22.3157 6.01571 22.4 5.81222 22.4 5.60005C22.4 5.38788 22.3157 5.18439 22.1657 5.03436C22.0156 4.88433 21.8121 4.80005 21.6 4.80005H2.39998ZM1.59998 12C1.59998 11.7879 1.68426 11.5844 1.83429 11.4344C1.98432 11.2843 2.1878 11.2 2.39998 11.2H21.6C21.8121 11.2 22.0156 11.2843 22.1657 11.4344C22.3157 11.5844 22.4 11.7879 22.4 12C22.4 12.2122 22.3157 12.4157 22.1657 12.5657C22.0156 12.7158 21.8121 12.8 21.6 12.8H2.39998C2.1878 12.8 1.98432 12.7158 1.83429 12.5657C1.68426 12.4157 1.59998 12.2122 1.59998 12V12ZM1.59998 18.4C1.59998 18.1879 1.68426 17.9844 1.83429 17.8344C1.98432 17.6843 2.1878 17.6 2.39998 17.6H21.6C21.8121 17.6 22.0156 17.6843 22.1657 17.8344C22.3157 17.9844 22.4 18.1879 22.4 18.4C22.4 18.6122 22.3157 18.8157 22.1657 18.9657C22.0156 19.1158 21.8121 19.2 21.6 19.2H2.39998C2.1878 19.2 1.98432 19.1158 1.83429 18.9657C1.68426 18.8157 1.59998 18.6122 1.59998 18.4V18.4Z" fill="#DEDEDE"/>
</svg>
