<svg width="24" height="17" viewBox="0 0 24 17" fill="none" xmlns="http://www.w3.org/2000/svg">
<path fill-rule="evenodd" clip-rule="evenodd" d="M6.85792 15.3798C6.85792 15.1651 6.94822 14.9592 7.10896 14.8075C7.26969 14.6557 7.4877 14.5704 7.71502 14.5704H23.1429C23.3702 14.5704 23.5882 14.6557 23.749 14.8075C23.9097 14.9592 24 15.1651 24 15.3798C24 15.5944 23.9097 15.8003 23.749 15.9521C23.5882 16.1039 23.3702 16.1892 23.1429 16.1892H7.71502C7.4877 16.1892 7.26969 16.1039 7.10896 15.9521C6.94822 15.8003 6.85792 15.5944 6.85792 15.3798ZM6.85792 8.90469C6.85792 8.69003 6.94822 8.48416 7.10896 8.33237C7.26969 8.18058 7.4877 8.09531 7.71502 8.09531H23.1429C23.3702 8.09531 23.5882 8.18058 23.749 8.33237C23.9097 8.48416 24 8.69003 24 8.90469C24 9.11936 23.9097 9.32523 23.749 9.47702C23.5882 9.62881 23.3702 9.71408 23.1429 9.71408H7.71502C7.4877 9.71408 7.26969 9.62881 7.10896 9.47702C6.94822 9.32523 6.85792 9.11936 6.85792 8.90469ZM6.85792 2.42961C6.85792 2.21494 6.94822 2.00907 7.10896 1.85728C7.26969 1.70549 7.4877 1.62022 7.71502 1.62022H23.1429C23.3702 1.62022 23.5882 1.70549 23.749 1.85728C23.9097 2.00907 24 2.21494 24 2.42961C24 2.64427 23.9097 2.85014 23.749 3.00193C23.5882 3.15372 23.3702 3.23899 23.1429 3.23899H7.71502C7.4877 3.23899 7.26969 3.15372 7.10896 3.00193C6.94822 2.85014 6.85792 2.64427 6.85792 2.42961ZM4.89343 0.237787C4.97325 0.312972 5.03658 0.402289 5.07979 0.500622C5.123 0.598954 5.14524 0.704371 5.14524 0.810833C5.14524 0.917295 5.123 1.02271 5.07979 1.12104C5.03658 1.21938 4.97325 1.30869 4.89343 1.38388L2.32212 3.81204C2.2425 3.88741 2.14792 3.94721 2.04379 3.98802C1.93966 4.02882 1.82803 4.04982 1.71529 4.04982C1.60255 4.04982 1.49092 4.02882 1.38679 3.98802C1.28266 3.94721 1.18808 3.88741 1.10846 3.81204L0.251357 3.00265C0.171667 2.9274 0.108453 2.83806 0.0653255 2.73973C0.0221976 2.64141 1.18747e-09 2.53603 0 2.42961C-1.18747e-09 2.32318 0.0221976 2.2178 0.0653255 2.11948C0.108453 2.02115 0.171667 1.93181 0.251357 1.85656C0.331047 1.78131 0.425653 1.72161 0.529773 1.68089C0.633893 1.64016 0.745488 1.6192 0.858187 1.6192C0.970886 1.6192 1.08248 1.64016 1.1866 1.68089C1.29072 1.72161 1.38533 1.78131 1.46502 1.85656L1.71529 2.09452L3.67977 0.237787C3.75939 0.162412 3.85397 0.10261 3.9581 0.0618068C4.06223 0.0210033 4.17386 0 4.2866 0C4.39934 0 4.51097 0.0210033 4.6151 0.0618068C4.71923 0.10261 4.81382 0.162412 4.89343 0.237787V0.237787ZM4.89343 6.71288C4.97325 6.78806 5.03658 6.87738 5.07979 6.97571C5.123 7.07404 5.14524 7.17946 5.14524 7.28592C5.14524 7.39238 5.123 7.4978 5.07979 7.59613C5.03658 7.69447 4.97325 7.78378 4.89343 7.85897L2.32212 10.2871C2.2425 10.3625 2.14792 10.4223 2.04379 10.4631C1.93966 10.5039 1.82803 10.5249 1.71529 10.5249C1.60255 10.5249 1.49092 10.5039 1.38679 10.4631C1.28266 10.4223 1.18808 10.3625 1.10846 10.2871L0.251357 9.47774C0.090416 9.32576 0 9.11963 0 8.90469C0 8.68976 0.090416 8.48363 0.251357 8.33165C0.412298 8.17967 0.630582 8.09429 0.858187 8.09429C1.08579 8.09429 1.30408 8.17967 1.46502 8.33165L1.71529 8.56961L3.67977 6.71288C3.75939 6.6375 3.85397 6.5777 3.9581 6.5369C4.06223 6.49609 4.17386 6.47509 4.2866 6.47509C4.39934 6.47509 4.51097 6.49609 4.6151 6.5369C4.71923 6.5777 4.81382 6.6375 4.89343 6.71288V6.71288ZM4.89343 13.188C4.97325 13.2631 5.03658 13.3525 5.07979 13.4508C5.123 13.5491 5.14524 13.6545 5.14524 13.761C5.14524 13.8675 5.123 13.9729 5.07979 14.0712C5.03658 14.1696 4.97325 14.2589 4.89343 14.3341L2.32212 16.7622C2.2425 16.8376 2.14792 16.8974 2.04379 16.9382C1.93966 16.979 1.82803 17 1.71529 17C1.60255 17 1.49092 16.979 1.38679 16.9382C1.28266 16.8974 1.18808 16.8376 1.10846 16.7622L0.251357 15.9528C0.090416 15.8008 0 15.5947 0 15.3798C0 15.1648 0.090416 14.9587 0.251357 14.8067C0.412298 14.6548 0.630582 14.5694 0.858187 14.5694C1.08579 14.5694 1.30408 14.6548 1.46502 14.8067L1.71529 15.0447L3.67977 13.188C3.75939 13.1126 3.85397 13.0528 3.9581 13.012C4.06223 12.9712 4.17386 12.9502 4.2866 12.9502C4.39934 12.9502 4.51097 12.9712 4.6151 13.012C4.71923 13.0528 4.81382 13.1126 4.89343 13.188V13.188Z" fill="#CBCFD4"/>
</svg>
