<svg width="34" height="34" viewBox="0 0 34 34" fill="none" xmlns="http://www.w3.org/2000/svg">
<path d="M25.5 26.2084C24.9364 26.2084 24.3959 25.9845 23.9974 25.586C23.5988 25.1874 23.375 24.6469 23.375 24.0834C23.375 23.5198 23.5988 22.9793 23.9974 22.5807C24.3959 22.1822 24.9364 21.9584 25.5 21.9584C26.0635 21.9584 26.604 22.1822 27.0026 22.5807C27.4011 22.9793 27.625 23.5198 27.625 24.0834C27.625 24.6469 27.4011 25.1874 27.0026 25.586C26.604 25.9845 26.0635 26.2084 25.5 26.2084ZM27.625 13.4584L30.4016 17H24.0833V13.4584H27.625ZM8.49996 26.2084C7.93637 26.2084 7.39587 25.9845 6.99736 25.586C6.59884 25.1874 6.37496 24.6469 6.37496 24.0834C6.37496 23.5198 6.59884 22.9793 6.99736 22.5807C7.39587 22.1822 7.93637 21.9584 8.49996 21.9584C9.06354 21.9584 9.60405 22.1822 10.0026 22.5807C10.4011 22.9793 10.625 23.5198 10.625 24.0834C10.625 24.6469 10.4011 25.1874 10.0026 25.586C9.60405 25.9845 9.06354 26.2084 8.49996 26.2084ZM28.3333 11.3334H24.0833V5.66669H4.24996C2.67746 5.66669 1.41663 6.92752 1.41663 8.50002V24.0834H4.24996C4.24996 25.2105 4.69773 26.2915 5.49476 27.0886C6.29179 27.8856 7.37279 28.3334 8.49996 28.3334C9.62713 28.3334 10.7081 27.8856 11.5052 27.0886C12.3022 26.2915 12.75 25.2105 12.75 24.0834H21.25C21.25 25.2105 21.6977 26.2915 22.4948 27.0886C23.2918 27.8856 24.3728 28.3334 25.5 28.3334C26.6271 28.3334 27.7081 27.8856 28.5052 27.0886C29.3022 26.2915 29.75 25.2105 29.75 24.0834H32.5833V17L28.3333 11.3334Z" fill="#525452"/>
</svg>
