<svg width="29" height="28" viewBox="0 0 29 28" fill="none" xmlns="http://www.w3.org/2000/svg">
<path d="M28.3102 7.6073C28.1357 7.36422 27.9015 7.24268 27.6076 7.24268H8.89948L7.46675 2.46217C7.33818 2.03003 7.16368 1.66091 6.94326 1.35482C6.72284 1.04872 6.48864 0.83265 6.24067 0.70661C5.9927 0.58057 5.77687 0.495043 5.59319 0.450029C5.40951 0.405014 5.22582 0.382507 5.04214 0.382507H1.26746C1.02867 0.382507 0.826617 0.463533 0.661302 0.625584C0.495987 0.787636 0.41333 0.994702 0.41333 1.24678C0.41333 1.39083 0.450067 1.53037 0.52354 1.66541C0.597013 1.80046 0.702631 1.90399 0.840393 1.97601C0.978155 2.04804 1.12051 2.08405 1.26746 2.08405H5.04214C5.11561 2.08405 5.18449 2.09305 5.24878 2.11106C5.31307 2.12906 5.40032 2.20559 5.51053 2.34063C5.62074 2.47567 5.71258 2.67824 5.78606 2.94832L10.6628 20.5039C10.6996 20.6119 10.7593 20.7155 10.8419 20.8145C10.9246 20.9135 11.021 20.99 11.1312 21.0441C11.2414 21.0981 11.3608 21.1251 11.4894 21.1251H23.3921C23.5757 21.1251 23.7457 21.0711 23.9018 20.963C24.0579 20.855 24.1635 20.72 24.2186 20.5579L28.4342 8.40405C28.526 8.11596 28.4847 7.85038 28.3102 7.6073ZM22.7859 19.3965H12.1782L9.36787 8.97123H26.3402L22.7859 19.3965ZM21.0501 22.8536C20.444 22.8536 19.925 23.0652 19.4934 23.4883C19.0617 23.9115 18.8459 24.4201 18.8459 25.0143C18.8459 25.6085 19.0617 26.1172 19.4934 26.5403C19.925 26.9634 20.444 27.175 21.0501 27.175C21.6563 27.175 22.1752 26.9634 22.6068 26.5403C23.0385 26.1172 23.2543 25.6085 23.2543 25.0143C23.2543 24.4201 23.0385 23.9115 22.6068 23.4883C22.1752 23.0652 21.6563 22.8536 21.0501 22.8536ZM13.115 22.8536C12.7109 22.8536 12.3389 22.9527 11.9991 23.1507C11.6593 23.3488 11.393 23.6099 11.2001 23.934C11.0072 24.2581 10.9108 24.6182 10.9108 25.0143C10.9108 25.6085 11.1266 26.1172 11.5583 26.5403C11.9899 26.9634 12.5089 27.175 13.115 27.175C13.7212 27.175 14.2401 26.9634 14.6717 26.5403C15.1034 26.1172 15.3192 25.6085 15.3192 25.0143C15.3192 24.8703 15.3054 24.7262 15.2779 24.5822C15.2503 24.4381 15.209 24.3031 15.1539 24.1771C15.0988 24.051 15.0299 23.9295 14.9472 23.8124C14.8646 23.6954 14.7727 23.5874 14.6717 23.4883C14.5707 23.3893 14.4605 23.2993 14.3411 23.2183C14.2217 23.1372 14.0977 23.0697 13.9691 23.0157C13.8406 22.9617 13.7028 22.9212 13.5558 22.8941C13.4089 22.8671 13.2619 22.8536 13.115 22.8536Z" fill="#CBCFD4"/>
</svg>
