<svg width="24" height="21" viewBox="0 0 24 21" fill="none" xmlns="http://www.w3.org/2000/svg">
<path d="M22.9261 4.3633C22.5697 3.54468 22.056 2.80285 21.4135 2.17934C20.7705 1.55397 20.0125 1.057 19.1805 0.715451C18.3178 0.35988 17.3926 0.177878 16.4584 0.180011C15.1479 0.180011 13.8693 0.536092 12.7581 1.20869C12.4923 1.36958 12.2397 1.54631 12.0005 1.73885C11.7612 1.54631 11.5087 1.36958 11.2429 1.20869C10.1317 0.536092 8.85306 0.180011 7.54252 0.180011C6.59883 0.180011 5.68438 0.35937 4.82044 0.715451C3.98573 1.05834 3.23344 1.55158 2.58747 2.17934C1.94416 2.80214 1.43026 3.54415 1.0749 4.3633C0.705401 5.21526 0.516663 6.11996 0.516663 7.05105C0.516663 7.92938 0.697426 8.84464 1.0563 9.77573C1.35668 10.5538 1.78733 11.3609 2.33759 12.176C3.20951 13.4658 4.4084 14.811 5.89704 16.1746C8.36394 18.4351 10.8069 19.9966 10.9106 20.0599L11.5406 20.4608C11.8197 20.6375 12.1786 20.6375 12.4577 20.4608L13.0877 20.0599C13.1914 19.9939 15.6317 18.4351 18.1013 16.1746C19.5899 14.811 20.7888 13.4658 21.6607 12.176C22.211 11.3609 22.6443 10.5538 22.942 9.77573C23.3009 8.84464 23.4816 7.92938 23.4816 7.05105C23.4843 6.11996 23.2956 5.21526 22.9261 4.3633ZM12.0005 18.3744C12.0005 18.3744 2.53696 12.358 2.53696 7.05105C2.53696 4.3633 4.7779 2.18461 7.54252 2.18461C9.48573 2.18461 11.1711 3.26077 12.0005 4.8328C12.8299 3.26077 14.5152 2.18461 16.4584 2.18461C19.2231 2.18461 21.464 4.3633 21.464 7.05105C21.464 12.358 12.0005 18.3744 12.0005 18.3744Z" fill="#CBCFD4"/>
</svg>
