<svg width="23" height="17" viewBox="0 0 23 17" fill="none" xmlns="http://www.w3.org/2000/svg">
<path fill-rule="evenodd" clip-rule="evenodd" d="M6.86867 14.6767C6.86867 14.4753 6.94868 14.2821 7.0911 14.1397C7.23351 13.9973 7.42667 13.9173 7.62808 13.9173H21.2973C21.4988 13.9173 21.6919 13.9973 21.8343 14.1397C21.9767 14.2821 22.0567 14.4753 22.0567 14.6767C22.0567 14.8781 21.9767 15.0713 21.8343 15.2137C21.6919 15.3561 21.4988 15.4361 21.2973 15.4361H7.62808C7.42667 15.4361 7.23351 15.3561 7.0911 15.2137C6.94868 15.0713 6.86867 14.8781 6.86867 14.6767ZM6.86867 8.60147C6.86867 8.40007 6.94868 8.20691 7.0911 8.0645C7.23351 7.92208 7.42667 7.84207 7.62808 7.84207H21.2973C21.4988 7.84207 21.6919 7.92208 21.8343 8.0645C21.9767 8.20691 22.0567 8.40007 22.0567 8.60147C22.0567 8.80288 21.9767 8.99604 21.8343 9.13845C21.6919 9.28087 21.4988 9.36088 21.2973 9.36088H7.62808C7.42667 9.36088 7.23351 9.28087 7.0911 9.13845C6.94868 8.99604 6.86867 8.80288 6.86867 8.60147ZM6.86867 2.52624C6.86867 2.32484 6.94868 2.13168 7.0911 1.98926C7.23351 1.84685 7.42667 1.76684 7.62808 1.76684H21.2973C21.4988 1.76684 21.6919 1.84685 21.8343 1.98926C21.9767 2.13168 22.0567 2.32484 22.0567 2.52624C22.0567 2.72765 21.9767 2.92081 21.8343 3.06322C21.6919 3.20564 21.4988 3.28565 21.2973 3.28565H7.62808C7.42667 3.28565 7.23351 3.20564 7.0911 3.06322C6.94868 2.92081 6.86867 2.72765 6.86867 2.52624ZM5.12812 0.469777C5.19884 0.540319 5.25495 0.62412 5.29323 0.71638C5.33151 0.80864 5.35122 0.907547 5.35122 1.00744C5.35122 1.10732 5.33151 1.20623 5.29323 1.29849C5.25495 1.39075 5.19884 1.47455 5.12812 1.54509L2.84991 3.82331C2.77936 3.89403 2.69556 3.95013 2.6033 3.98842C2.51104 4.0267 2.41214 4.04641 2.31225 4.04641C2.21236 4.04641 2.11345 4.0267 2.02119 3.98842C1.92893 3.95013 1.84513 3.89403 1.77459 3.82331L1.01519 3.0639C0.94458 2.99329 0.888571 2.90947 0.85036 2.81722C0.812148 2.72497 0.79248 2.6261 0.79248 2.52624C0.79248 2.42639 0.812148 2.32752 0.85036 2.23526C0.888571 2.14301 0.94458 2.05919 1.01519 1.98858C1.08579 1.91798 1.16961 1.86197 1.26187 1.82376C1.35412 1.78555 1.45299 1.76588 1.55284 1.76588C1.6527 1.76588 1.75157 1.78555 1.84382 1.82376C1.93607 1.86197 2.0199 1.91798 2.0905 1.98858L2.31225 2.21185L4.0528 0.469777C4.12334 0.399056 4.20714 0.342947 4.2994 0.304664C4.39166 0.26638 4.49057 0.246674 4.59046 0.246674C4.69035 0.246674 4.78925 0.26638 4.88151 0.304664C4.97377 0.342947 5.05758 0.399056 5.12812 0.469777ZM5.12812 6.54501C5.19884 6.61555 5.25495 6.69935 5.29323 6.79161C5.33151 6.88387 5.35122 6.98278 5.35122 7.08267C5.35122 7.18255 5.33151 7.28146 5.29323 7.37372C5.25495 7.46598 5.19884 7.54978 5.12812 7.62032L2.84991 9.89854C2.77936 9.96926 2.69556 10.0254 2.6033 10.0636C2.51104 10.1019 2.41214 10.1216 2.31225 10.1216C2.21236 10.1216 2.11345 10.1019 2.02119 10.0636C1.92893 10.0254 1.84513 9.96926 1.77459 9.89854L1.01519 9.13913C0.87259 8.99654 0.79248 8.80313 0.79248 8.60147C0.79248 8.39981 0.87259 8.20641 1.01519 8.06382C1.15778 7.92122 1.35118 7.84111 1.55284 7.84111C1.7545 7.84111 1.94791 7.92122 2.0905 8.06382L2.31225 8.28708L4.0528 6.54501C4.12334 6.47429 4.20714 6.41818 4.2994 6.3799C4.39166 6.34161 4.49057 6.32191 4.59046 6.32191C4.69035 6.32191 4.78925 6.34161 4.88151 6.3799C4.97377 6.41818 5.05758 6.47429 5.12812 6.54501ZM5.12812 12.6202C5.19884 12.6908 5.25495 12.7746 5.29323 12.8668C5.33151 12.9591 5.35122 13.058 5.35122 13.1579C5.35122 13.2578 5.33151 13.3567 5.29323 13.449C5.25495 13.5412 5.19884 13.625 5.12812 13.6956L2.84991 15.9738C2.77936 16.0445 2.69556 16.1006 2.6033 16.1389C2.51104 16.1772 2.41214 16.1969 2.31225 16.1969C2.21236 16.1969 2.11345 16.1772 2.02119 16.1389C1.92893 16.1006 1.84513 16.0445 1.77459 15.9738L1.01519 15.2144C0.87259 15.0718 0.79248 14.8784 0.79248 14.6767C0.79248 14.475 0.87259 14.2816 1.01519 14.139C1.15778 13.9965 1.35118 13.9163 1.55284 13.9163C1.7545 13.9163 1.94791 13.9965 2.0905 14.139L2.31225 14.3623L4.0528 12.6202C4.12334 12.5495 4.20714 12.4934 4.2994 12.4551C4.39166 12.4168 4.49057 12.3971 4.59046 12.3971C4.69035 12.3971 4.78925 12.4168 4.88151 12.4551C4.97377 12.4934 5.05758 12.5495 5.12812 12.6202Z" fill="#CBCFD4"/>
</svg>
