<svg width="33" height="33" viewBox="0 0 33 33" fill="none" xmlns="http://www.w3.org/2000/svg">
<path d="M27.3222 9.27018H14.0489L14.0571 6.9193C14.0571 6.31009 14.3887 5.65259 14.9245 5.65259H27.0866C27.6228 5.65259 28.0575 5.21789 28.0575 4.68169C28.0575 2.10019 25.9573 0 23.3758 0H8.81748C5.43207 0 2.91374 2.94151 2.91374 6.29831C2.88889 11.3441 2.98423 7.39957 2.38013 26.3992C1.00708 26.7971 0 28.065 0 29.5646V31.9002C0 32.4364 0.434705 32.8711 0.970902 32.8711H16.4504C16.9866 32.8711 17.4213 32.4364 17.4213 31.9002V29.5646C17.4213 28.0628 16.4111 26.7932 15.0347 26.3975L14.7632 18.6407C14.7407 18.0012 15.2518 17.4718 15.8927 17.4718H23.6366V20.211C23.6366 20.7472 24.0713 21.1819 24.6075 21.1819H29.9261C30.4623 21.1819 30.897 20.7472 30.897 20.211V17.4718H32.0291C32.5653 17.4718 33 17.0371 33 16.5009V14.9481C33.0001 11.8172 30.453 9.27018 27.3222 9.27018ZM8.81748 1.94187H23.3759C24.5449 1.94187 25.5453 2.67794 25.938 3.71085H14.9245C13.166 3.71085 12.1153 5.34223 12.1153 6.91593L12.1071 9.27024H4.84092L4.85555 6.30316C4.85555 3.8983 6.63288 1.94187 8.81748 1.94187ZM15.4795 29.5646V30.9293H1.9418V29.5646C1.9418 28.8181 2.5492 28.2107 3.2957 28.2107H14.1256C14.8722 28.2107 15.4795 28.8181 15.4795 29.5646ZM28.9553 19.2401H25.5785V17.4718H28.9553V19.2401ZM31.0583 15.53H15.8928C14.1522 15.53 12.7612 16.9692 12.8226 18.709L13.0872 26.2689H4.32699L4.80571 11.212H27.3222C29.3823 11.212 31.0583 12.888 31.0583 14.948V15.53Z" fill="white"/>
<path d="M27.8845 23.9891C27.4962 23.4739 26.7218 23.4746 26.334 23.9891C25.456 25.1545 23.603 27.8464 23.603 29.337C23.603 31.2703 25.176 32.8432 27.1093 32.8432C29.0426 32.8432 30.6155 31.2703 30.6155 29.337C30.6155 27.8485 28.7526 25.1405 27.8845 23.9891ZM27.1093 30.9013C26.2467 30.9013 25.5448 30.1995 25.5448 29.3369C25.5448 28.8425 26.2631 27.5196 27.1095 26.2524C27.9557 27.5188 28.6737 28.8414 28.6737 29.3369C28.6737 30.1996 27.9719 30.9013 27.1093 30.9013Z" fill="white"/>
</svg>
