<svg width="35" height="33" viewBox="0 0 35 33" fill="none" xmlns="http://www.w3.org/2000/svg">
<path d="M30.6067 0.966797C30.6067 0.432867 30.1465 0 29.5801 0C24.1546 0 19.4886 3.12475 17.4999 7.56576C15.5112 3.12475 10.845 0 5.41858 0C4.85229 0 4.39319 0.432867 4.39319 0.966797C4.39319 7.45555 9.72488 12.7921 16.4745 13.2869V19.6066C16.4745 20.1406 16.9336 20.5734 17.4999 20.5734C18.0662 20.5734 18.5253 20.1406 18.5253 19.6066V13.2869C25.275 12.7921 30.6067 7.45555 30.6067 0.966797ZM6.49599 1.98258C11.7342 2.46204 15.914 6.40297 16.4225 11.3419C11.1847 10.862 7.005 6.92117 6.49599 1.98258ZM18.5773 11.3419C19.0858 6.40335 23.2653 2.46256 28.5039 1.98271C27.9948 6.92123 23.8152 10.862 18.5773 11.3419Z" fill="white"/>
<path d="M11.086 19.4407C9.80157 18.2297 7.75394 18.211 6.44403 19.3476V15.4633C6.44403 12.6479 4.0144 10.3554 1.02655 10.3554H1.02539C0.459102 10.3554 0 10.7883 0 11.3222V23.7488C0 24.0052 0.108076 24.2511 0.300371 24.4324L6.58984 30.3626V32.0332C6.58984 32.5671 7.04895 33 7.61523 33H15.3034C15.8697 33 16.3288 32.5671 16.3288 32.0332V26.5003C16.3288 25.1355 15.7652 23.8525 14.7418 22.8876L11.086 19.4407ZM14.278 31.0664H8.64062V29.9621C8.64062 29.7057 8.53255 29.4598 8.34025 29.2785L2.05078 23.3483V12.4412C3.98822 13.0276 4.39325 14.7202 4.39325 15.4634V21.6778C4.39325 21.9342 4.50133 22.18 4.69362 22.3614L9.08687 26.5036C9.48732 26.8811 10.1366 26.8811 10.537 26.5036C10.9374 26.1261 10.9374 25.5139 10.537 25.1363L7.79119 22.5474C7.2815 22.0668 7.28109 21.289 7.79119 20.808C8.30122 20.3272 9.12577 20.327 9.63601 20.808L13.2917 24.2549C13.9278 24.8546 14.2781 25.652 14.2781 26.5003V31.0664H14.278Z" fill="white"/>
<path d="M33.9746 10.3555H33.9735C30.9857 10.3555 28.556 12.6481 28.556 15.4634V19.3476C27.2461 18.2111 25.1985 18.2298 23.914 19.4408L20.2582 22.8877C19.2349 23.8525 18.6713 25.1355 18.6713 26.5003V32.0332C18.6713 32.5671 19.1304 33 19.6967 33H27.3848C27.951 33 28.4102 32.5671 28.4102 32.0332V30.3626L34.6996 24.4324C34.8919 24.2511 35 24.0052 35 23.7488V11.3223C35 10.7883 34.5409 10.3555 33.9746 10.3555ZM32.9492 23.3483L26.6597 29.2785C26.4674 29.4598 26.3594 29.7056 26.3594 29.962V31.0664H20.722V26.5003C20.722 25.652 21.0723 24.8546 21.7083 24.2549L25.3641 20.808C25.8743 20.327 26.6989 20.3272 27.2089 20.808C27.719 21.289 27.7186 22.0668 27.2089 22.5474L24.4631 25.1363C24.0627 25.5139 24.0627 26.126 24.4631 26.5036C24.8635 26.8811 25.5127 26.8811 25.9132 26.5036L30.3064 22.3613C30.4987 22.18 30.6068 21.9341 30.6068 21.6778V15.4634C30.6068 14.7202 31.0118 13.0276 32.9493 12.4412V23.3483H32.9492Z" fill="white"/>
</svg>
