<svg width="43" height="33" viewBox="0 0 43 33" fill="none" xmlns="http://www.w3.org/2000/svg">
<path d="M38.3668 0H4.63292C2.07829 0 0 1.8239 0 4.06612V28.9339C0 31.1758 2.07829 33 4.63292 33H38.3668C40.9217 33 43 31.1758 43 28.9339V4.06612C43 1.8239 40.9217 0 38.3668 0ZM40.4805 28.9339C40.4805 29.9568 39.5324 30.7889 38.3668 30.7889H4.63292C3.46764 30.7889 2.51953 29.9568 2.51953 28.9339V4.06612C2.51953 3.04319 3.46764 2.21113 4.63292 2.21113H38.3668C39.5324 2.21113 40.4805 3.04319 40.4805 4.06612V28.9339Z" fill="white"/>
<path d="M22.1745 4.737H10.0306C7.47595 4.737 5.39734 6.5609 5.39734 8.80283V24.1973C5.39734 26.4392 7.47595 28.2634 10.0306 28.2634H22.1749C24.7295 28.2634 26.8078 26.4392 26.8078 24.1973V8.80283C26.8078 6.5609 24.7295 4.737 22.1745 4.737ZM24.2882 24.1973C24.2882 25.2199 23.3401 26.0523 22.1745 26.0523H10.0306C8.86497 26.0523 7.91687 25.2199 7.91687 24.1973V8.80283C7.91687 7.78019 8.86497 6.94813 10.0306 6.94813H22.1749C23.3401 6.94813 24.2882 7.78019 24.2882 8.80283V24.1973Z" fill="white"/>
<path d="M36.3429 5.92108H30.9453C30.2495 5.92108 29.6855 6.416 29.6855 7.02665C29.6855 7.63701 30.2495 8.13221 30.9453 8.13221H36.3429C37.0384 8.13221 37.6027 7.63701 37.6027 7.02665C37.6027 6.416 37.0388 5.92108 36.3429 5.92108Z" fill="white"/>
<path d="M36.3429 10.6578H30.9453C30.2495 10.6578 29.6855 11.1527 29.6855 11.7633C29.6855 12.3737 30.2495 12.8689 30.9453 12.8689H36.3429C37.0384 12.8689 37.6027 12.3737 37.6027 11.7633C37.6027 11.1527 37.0388 10.6578 36.3429 10.6578Z" fill="white"/>
<path d="M36.3429 15.3945H30.9453C30.2495 15.3945 29.6855 15.8897 29.6855 16.5C29.6855 17.1107 30.2495 17.6056 30.9453 17.6056H36.3429C37.0384 17.6056 37.6027 17.1107 37.6027 16.5C37.6027 15.8894 37.0388 15.3945 36.3429 15.3945Z" fill="white"/>
<path d="M36.3429 20.1311H30.9453C30.2495 20.1311 29.6855 20.6263 29.6855 21.2367C29.6855 21.8473 30.2495 22.3422 30.9453 22.3422H36.3429C37.0384 22.3422 37.6027 21.8473 37.6027 21.2367C37.6027 20.6263 37.0388 20.1311 36.3429 20.1311Z" fill="white"/>
<path d="M36.3429 24.868H30.9453C30.2495 24.868 29.6855 25.363 29.6855 25.9736C29.6855 26.584 30.2495 27.0792 30.9453 27.0792H36.3429C37.0384 27.0792 37.6027 26.584 37.6027 25.9736C37.6027 25.363 37.0388 24.868 36.3429 24.868Z" fill="white"/>
<path d="M16.1027 13.0261C13.9197 13.0261 12.1439 14.5846 12.1439 16.5C12.1439 18.4155 13.9197 19.9739 16.1027 19.9739C18.2853 19.9739 20.0611 18.4155 20.0611 16.5C20.0611 14.5846 18.2853 13.0261 16.1027 13.0261ZM16.1027 17.7628C15.3091 17.7628 14.6635 17.1965 14.6635 16.5C14.6635 15.8036 15.3091 15.2373 16.1027 15.2373C16.8959 15.2373 17.5416 15.8036 17.5416 16.5C17.5416 17.1965 16.8959 17.7628 16.1027 17.7628Z" fill="white"/>
</svg>
