<svg width="33" height="33" viewBox="0 0 33 33" fill="none" xmlns="http://www.w3.org/2000/svg">
<path d="M17.5355 33H15.4644C13.7894 33 12.4265 31.6372 12.4265 29.9621V29.2615C11.7144 29.0339 11.0225 28.7467 10.3577 28.4028L9.8612 28.8993C8.65857 30.1034 6.73213 30.0681 5.56443 28.8988L4.10064 27.4351C2.93088 26.2666 2.89723 24.3409 4.10102 23.1383L4.59718 22.6422C4.2532 21.9775 3.96606 21.2857 3.73847 20.5734H3.03787C1.36286 20.5734 0 19.2106 0 17.5356V15.4644C0 13.7894 1.36286 12.4266 3.03793 12.4266H3.73854C3.96612 11.7144 4.25326 11.0225 4.59725 10.3578L4.1007 9.86133C2.89762 8.65954 2.93081 6.73355 4.10109 5.56456L5.56501 4.1007C6.73542 2.92869 8.6614 2.89942 9.86171 4.10109L10.3578 4.59718C11.0225 4.25326 11.7144 3.96606 12.4266 3.73847V3.03787C12.4266 1.3628 13.7894 0 15.4645 0H17.5356C19.2106 0 20.5734 1.3628 20.5734 3.03787V3.73854C21.2856 3.96606 21.9775 4.25326 22.6422 4.59725L23.1387 4.1007C24.3414 2.89659 26.2678 2.93191 27.4355 4.10115L28.8993 5.56488C30.0691 6.73335 30.1027 8.65915 28.8989 9.86165L28.4028 10.3578C28.7467 11.0225 29.0339 11.7143 29.2615 12.4266H29.9621C31.6371 12.4266 33 13.7894 33 15.4644V17.5356C33 19.2106 31.6371 20.5734 29.9621 20.5734H29.2615C29.0339 21.2856 28.7467 21.9775 28.4028 22.6422L28.8993 23.1387C30.1024 24.3405 30.0692 26.2665 28.8989 27.4355L27.435 28.8994C26.2646 30.0714 24.3386 30.1006 23.1383 28.899L22.6422 28.4029C21.9775 28.7468 21.2856 29.034 20.5734 29.2616V29.9623C20.5734 31.6372 19.2106 33 17.5355 33ZM10.681 26.3723C11.6044 26.9184 12.5983 27.331 13.6349 27.5985C14.0619 27.7087 14.3602 28.0937 14.3602 28.5346V29.9621C14.3602 30.571 14.8556 31.0664 15.4645 31.0664H17.5356C18.1445 31.0664 18.6399 30.571 18.6399 29.9621V28.5346C18.6399 28.0937 18.9382 27.7087 19.3651 27.5985C20.4018 27.331 21.3957 26.9184 22.3191 26.3723C22.699 26.1476 23.1828 26.2087 23.4949 26.5208L24.506 27.5321C24.942 27.9685 25.6421 27.9584 26.0674 27.5325L27.5322 26.0677C27.9564 25.644 27.9706 24.9438 27.5326 24.5064L26.521 23.4948C26.2089 23.1827 26.1478 22.6989 26.3724 22.319C26.9185 21.3957 27.331 20.4018 27.5986 19.3651C27.7088 18.9381 28.0938 18.6399 28.5347 18.6399H29.9621C30.571 18.6399 31.0665 18.1445 31.0665 17.5356V15.4645C31.0665 14.8556 30.571 14.3602 29.9621 14.3602H28.5347C28.0938 14.3602 27.7088 14.0619 27.5986 13.6351C27.331 12.5983 26.9185 11.6045 26.3724 10.6811C26.1478 10.3012 26.2089 9.81744 26.521 9.50535L27.5322 8.49415C27.9693 8.05754 27.9579 7.35758 27.5326 6.93277L26.0679 5.46807C25.6433 5.04294 24.9431 5.0305 24.5065 5.46769L23.495 6.47928C23.1829 6.79143 22.699 6.85253 22.3192 6.62784C21.3957 6.08173 20.4019 5.66917 19.3652 5.40162C18.9383 5.29147 18.64 4.90643 18.64 4.46551V3.03787C18.64 2.42898 18.1445 1.93359 17.5356 1.93359H15.4646C14.8557 1.93359 14.3602 2.42898 14.3602 3.03787V4.46538C14.3602 4.9063 14.0619 5.29134 13.635 5.40149C12.5983 5.66904 11.6045 6.0816 10.681 6.62772C10.301 6.85233 9.81731 6.79123 9.50523 6.47915L8.49408 5.46795C8.05812 5.03147 7.35797 5.04159 6.93277 5.46749L5.46795 6.93226C5.04372 7.35597 5.02954 8.05612 5.46756 8.49363L6.47915 9.50523C6.79123 9.81731 6.85233 10.3011 6.62772 10.681C6.0816 11.6043 5.6691 12.5982 5.40156 13.6349C5.29134 14.0619 4.9063 14.3601 4.46544 14.3601H3.03793C2.42904 14.3602 1.93359 14.8555 1.93359 15.4644V17.5356C1.93359 18.1445 2.42904 18.6398 3.03793 18.6398H4.46538C4.9063 18.6398 5.29128 18.9381 5.40149 19.365C5.66904 20.4017 6.0816 21.3956 6.62765 22.319C6.85227 22.6988 6.79117 23.1826 6.47909 23.4947L5.46788 24.5059C5.03076 24.9425 5.04217 25.6425 5.46749 26.0673L6.93219 27.532C7.35674 27.9571 8.05696 27.9696 8.49357 27.5324L9.5051 26.5208C9.73506 26.2909 10.2135 26.0958 10.681 26.3723Z" fill="white"/>
<path d="M16.5 23.68C12.5409 23.68 9.31995 20.4591 9.31995 16.5C9.31995 12.5409 12.5409 9.31989 16.5 9.31989C20.4592 9.31989 23.6801 12.5409 23.6801 16.5C23.6801 20.4591 20.4592 23.68 16.5 23.68ZM16.5 11.2535C13.607 11.2535 11.2535 13.607 11.2535 16.5C11.2535 19.3929 13.6071 21.7464 16.5 21.7464C19.3929 21.7464 21.7465 19.3929 21.7465 16.5C21.7465 13.607 19.393 11.2535 16.5 11.2535Z" fill="white"/>
</svg>
