<svg width="31" height="33" viewBox="0 0 31 33" fill="none" xmlns="http://www.w3.org/2000/svg">
<path d="M30.62 8.95374L30.6189 8.92806C30.6033 8.61108 30.5928 8.27573 30.5865 7.90261C30.5571 6.08307 28.9792 4.57799 26.994 4.47627C22.855 4.26454 19.653 3.02734 16.9172 0.582909L16.8938 0.562516C16.0015 -0.187505 14.6554 -0.187505 13.7627 0.562516L13.7394 0.582909C11.0035 3.02734 7.8016 4.26454 3.66253 4.47653C1.67759 4.57799 0.0994127 6.08307 0.0700246 7.90286C0.0639821 8.27346 0.0532705 8.60882 0.0376151 8.92806L0.0359672 8.98773C-0.0445071 12.8567 -0.144482 17.6718 1.61277 22.0422C2.57901 24.4456 4.04238 26.5348 5.96195 28.2521C8.14821 30.2079 11.0118 31.7605 14.473 32.8668C14.5856 32.9028 14.7026 32.932 14.8218 32.9539C14.9899 32.9846 15.1591 33 15.3283 33C15.4975 33 15.6669 32.9846 15.8347 32.9539C15.9539 32.932 16.0718 32.9026 16.1849 32.8663C19.642 31.758 22.5026 30.2046 24.6869 28.2491C26.6057 26.5313 28.069 24.4416 29.0361 22.0377C30.7999 17.6541 30.7002 12.83 30.62 8.95374ZM27.0542 21.3677C25.2008 25.9741 21.4174 29.1376 15.4879 31.0385C15.4667 31.045 15.4442 31.0508 15.4208 31.0551C15.3596 31.0662 15.2972 31.0662 15.2352 31.0548C15.2121 31.0506 15.1896 31.045 15.1687 31.0385C9.23283 29.1411 5.44697 25.9794 3.59496 21.3728C1.97531 17.3442 2.06705 12.9241 2.14807 9.02474L2.14862 9.00309C2.1651 8.66798 2.17609 8.31702 2.18213 7.93131C2.19531 7.12338 2.89734 6.45493 3.78036 6.40986C6.12262 6.29002 8.18035 5.87511 10.0711 5.14145C11.9593 4.4088 13.6364 3.37604 15.1975 1.98426C15.2769 1.92283 15.3799 1.92258 15.459 1.98426C17.0204 3.37604 18.6975 4.4088 20.5855 5.14145C22.4762 5.87511 24.5339 6.29002 26.8765 6.40986C27.7595 6.45493 28.4615 7.12338 28.4744 7.93156C28.4807 8.31928 28.4917 8.67025 28.5082 9.00309C28.589 12.907 28.6785 17.3306 27.0542 21.3677Z" fill="white"/>
<path d="M15.3276 8.27661C10.3805 8.27661 6.35596 11.9661 6.35596 16.5007C6.35596 21.0356 10.3805 24.725 15.3276 24.725C20.2745 24.725 24.2993 21.0356 24.2993 16.5007C24.2993 11.9661 20.2745 8.27661 15.3276 8.27661ZM15.3276 22.7884C11.5453 22.7884 8.46834 19.9678 8.46834 16.5007C8.46834 13.0336 11.5453 10.213 15.3276 10.213C19.1097 10.213 22.1866 13.0336 22.1866 16.5007C22.1866 19.9678 19.1097 22.7884 15.3276 22.7884Z" fill="white"/>
<path d="M17.9064 13.9474L13.7393 17.7672L12.6082 16.7305C12.1957 16.3523 11.5269 16.3523 11.1144 16.7305C10.7021 17.1086 10.7021 17.7217 11.1144 18.0996L12.9925 19.8212C13.1987 20.0103 13.469 20.1047 13.7393 20.1047C14.0095 20.1047 14.2798 20.0103 14.4861 19.8212L19.4002 15.3165C19.8125 14.9383 19.8125 14.3253 19.4002 13.9474C18.9877 13.569 18.3189 13.569 17.9064 13.9474Z" fill="white"/>
</svg>
