<svg width="31" height="33" viewBox="0 0 31 33" fill="none" xmlns="http://www.w3.org/2000/svg">
<path d="M9.43343 13.4548C9.43343 13.0052 9.00963 12.6373 8.49165 12.6373H0.941773C0.423798 12.6373 0 13.0052 0 13.4548C0 13.9045 0.423798 14.2723 0.941773 14.2723H8.49165C9.00963 14.2723 9.43343 13.9045 9.43343 13.4548Z" fill="white"/>
<path d="M30.0582 12.6373H22.5083C21.9903 12.6373 21.5665 13.0052 21.5665 13.4548C21.5665 13.9045 21.9903 14.2723 22.5083 14.2723H30.0582C30.5762 14.2723 31 13.9045 31 13.4548C31 13.0052 30.584 12.6373 30.0582 12.6373Z" fill="white"/>
<path d="M15.5 8.18869C16.018 8.18869 16.4418 7.82081 16.4418 7.37118V0.817507C16.4418 0.367878 16.018 0 15.5 0C14.982 0 14.5582 0.367878 14.5582 0.817507V7.37118C14.5582 7.82081 14.982 8.18869 15.5 8.18869Z" fill="white"/>
<path d="M20.4522 9.97358C20.6955 9.97358 20.9309 9.89183 21.1192 9.73514L26.4638 5.09579C26.8327 4.7756 26.8327 4.25784 26.4638 3.93765C26.095 3.61746 25.4985 3.61746 25.1296 3.93765L19.7851 8.577C19.4162 8.89719 19.4162 9.41495 19.7851 9.73514C19.9734 9.89183 20.2167 9.97358 20.4522 9.97358Z" fill="white"/>
<path d="M9.88073 9.73514C10.0612 9.89183 10.3045 9.97358 10.5478 9.97358C10.7911 9.97358 11.0266 9.89183 11.2149 9.73514C11.5838 9.41495 11.5838 8.89719 11.2149 8.577L5.87035 3.93765C5.50148 3.61746 4.90503 3.61746 4.53617 3.93765C4.16731 4.25784 4.16731 4.7756 4.53617 5.09579L9.88073 9.73514Z" fill="white"/>
<path d="M26.817 18.6119C26.1028 18.0805 25.2003 17.7876 24.282 17.7876H23.4266H20.3501H18.8904V14.4835C18.8904 12.903 18.3489 11.7517 17.2737 11.0636C15.5785 9.9872 13.279 10.5935 13.177 10.6208C12.7846 10.7298 12.5177 11.0431 12.5177 11.3974V15.3827C12.5177 16.5954 11.8506 17.6241 10.5243 18.4484C9.51974 19.0751 8.49164 19.3613 8.35822 19.3953L8.26405 19.4158C7.91088 19.0683 7.3929 18.8503 6.81214 18.8503H3.23341C2.16606 18.8503 1.29492 19.6065 1.29492 20.533V30.7246C1.29492 31.6511 2.16606 32.4073 3.23341 32.4073H6.82784C7.29873 32.4073 7.73822 32.2574 8.06784 32.0122C8.78987 32.6253 9.77088 33 10.8304 33H14.4013H14.7701H22.0767C23.2068 33 24.2036 32.7616 24.9648 32.3188C25.938 31.7465 26.5423 30.8404 26.715 29.6823L28.1669 21.8479C28.3945 20.6352 27.8765 19.3953 26.817 18.6119ZM6.88278 30.7246C6.88278 30.7519 6.85923 30.7723 6.82784 30.7723H3.23341C3.20201 30.7723 3.17847 30.7519 3.17847 30.7246V20.533C3.17847 20.5058 3.20201 20.4853 3.23341 20.4853H6.82784C6.85923 20.4853 6.88278 20.5058 6.88278 20.533V30.7246ZM26.3069 21.5958L24.855 29.4439C24.855 29.4507 24.8549 29.4643 24.8471 29.4779C24.7843 29.948 24.5803 31.3718 22.0767 31.3718H14.7701H14.4013H10.8304C9.82582 31.3718 8.94683 30.7178 8.78987 29.8526C8.78202 29.8186 8.77417 29.7845 8.76632 29.7572V20.9963L8.82126 20.9827C8.83696 20.9827 8.84481 20.9759 8.8605 20.9759C8.91544 20.9622 10.2496 20.6352 11.5759 19.8109C13.4203 18.6732 14.4013 17.1404 14.4013 15.3827V12.0718C14.9192 12.0242 15.6334 12.0446 16.1592 12.3784C16.7243 12.7395 17.0068 13.448 17.0068 14.4767V18.5983C17.0068 19.0479 17.4306 19.4158 17.9486 19.4158H20.3501H23.4266H24.282C24.7529 19.4158 25.216 19.5725 25.5927 19.845C26.1577 20.2673 26.4246 20.935 26.3069 21.5958Z" fill="white"/>
</svg>
