<svg width="20" height="33" viewBox="0 0 20 33" fill="none" xmlns="http://www.w3.org/2000/svg">
<path d="M16.5025 9.06224C16.4025 8.57278 16.1454 8.1452 15.7895 7.82512V7.73438C15.7895 7.45007 16.0256 7.21875 16.3158 7.21875C18.3473 7.21875 20 5.59956 20 3.60938C20 1.61919 18.3473 0 16.3158 0H3.15789C2.57651 0 2.10526 0.461742 2.10526 1.03125V1.54688H1.05263C0.47125 1.54688 0 2.00862 0 2.57812V4.64062C0 5.21013 0.47125 5.67188 1.05263 5.67188H2.10526V6.1875C2.10526 6.75701 2.57651 7.21875 3.15789 7.21875H4.66316C4.42849 8.87384 3.63776 10.4465 2.41362 11.6458C2.0025 12.0485 2.0025 12.7015 2.41362 13.1042C2.82467 13.5069 3.49112 13.5069 3.90224 13.1042C5.51928 11.52 6.53875 9.41847 6.78401 7.21869H7.36842C7.74671 7.21869 8.07809 7.41591 8.26368 7.71021C7.71908 8.13057 7.36842 8.78167 7.36842 9.51199C7.36842 12.3564 6.14816 15.0979 4.02059 17.0333C1.4654 19.3577 0 22.6501 0 26.0661V29.9062C0 31.6121 1.41664 33 3.15789 33H15.7895C17.5307 33 18.9474 31.6121 18.9474 29.9062C18.9474 19.6729 19.2081 22.3158 16.5025 9.06224ZM7.36842 5.15625H4.21053C4.21053 4.24095 4.21053 2.97851 4.21053 2.0625H16.3158C17.1864 2.0625 17.8947 2.7564 17.8947 3.60938C17.8947 4.46235 17.1864 5.15625 16.3158 5.15625C15.045 5.15625 13.9816 6.04345 13.7371 7.21875H10.3459C9.91145 6.01831 8.74079 5.15625 7.36842 5.15625ZM16.8421 29.9062C16.8421 30.4749 16.3699 30.9375 15.7895 30.9375H3.15789C2.5775 30.9375 2.10526 30.4749 2.10526 29.9062V26.0661C2.10526 23.2217 3.32553 20.4802 5.45309 18.5448C8.00829 16.2204 9.47368 12.9281 9.47368 9.51199C9.47368 9.38476 9.57934 9.28125 9.70921 9.28125H14.2071C14.3189 9.28125 14.4162 9.3593 14.4381 9.46675C17.1121 22.5654 16.8421 19.8289 16.8421 29.9062Z" fill="white"/>
</svg>
