<svg width="35" height="33" viewBox="0 0 35 33" fill="none" xmlns="http://www.w3.org/2000/svg">
<path d="M26.7895 0.117211C26.352 -0.0807742 25.842 -0.0242069 25.467 0.25863L15.4923 7.77737C14.9524 8.18277 14.8674 8.92521 15.2974 9.43432C15.7298 9.94578 16.5148 10.0283 17.0548 9.62052L24.997 3.63145V18.1033C24.997 18.7561 25.557 19.2817 26.247 19.2817C26.937 19.2817 27.4969 18.7538 27.4969 18.1033V1.18021C27.4969 0.727667 27.2219 0.315197 26.7895 0.117211Z" fill="white"/>
<path d="M34.6319 30.9896L27.1347 23.9211L27.1322 23.9187L14.6326 12.1339L14.6301 12.1315L12.1327 9.7769L12.1302 9.77454L2.13305 0.34666C1.64557 -0.112949 0.853096 -0.112949 0.365612 0.34666C-0.121871 0.806269 -0.121871 1.55343 0.365612 2.01304L8.23034 9.43042H7.49787C6.09542 9.43042 4.99795 10.4651 4.99795 11.7874V21.2153C4.99795 22.5375 6.09542 23.5722 7.49787 23.5722H13.3077L25.4648 32.7432C25.6922 32.9129 25.9697 33.0001 26.2472 33.0001C26.4297 33.0001 26.6147 32.9624 26.7897 32.8846C27.2222 32.6866 27.4972 32.2742 27.4972 31.8216V27.5956L32.862 32.6537C33.107 32.8846 33.427 33.0001 33.747 33.0001C34.067 33.0001 34.3869 32.8846 34.6319 32.656C35.1194 32.1964 35.1194 31.4492 34.6319 30.9896ZM12.4977 21.2153H7.49787V11.7874H10.7303L12.4977 13.4538V21.2153ZM24.9973 29.368L14.9976 21.8257V15.8107L24.9973 25.2386V29.368Z" fill="white"/>
</svg>
