<svg width="40" height="40" viewBox="0 0 40 40" fill="none" xmlns="http://www.w3.org/2000/svg">
<circle cx="20" cy="20" r="20" fill="#4CA6F8"/>
<path d="M27.5 13.75H12.5C12.1685 13.75 11.8505 13.8817 11.6161 14.1161C11.3817 14.3505 11.25 14.6685 11.25 15V25C11.25 25.3315 11.3817 25.6495 11.6161 25.8839C11.8505 26.1183 12.1685 26.25 12.5 26.25H27.5C27.8315 26.25 28.1495 26.1183 28.3839 25.8839C28.6183 25.6495 28.75 25.3315 28.75 25V15C28.75 14.6685 28.6183 14.3505 28.3839 14.1161C28.1495 13.8817 27.8315 13.75 27.5 13.75V13.75ZM26.125 15L20 19.2375L13.875 15H26.125ZM12.5 25V15.5687L19.6438 20.5125C19.7484 20.5851 19.8727 20.624 20 20.624C20.1273 20.624 20.2516 20.5851 20.3562 20.5125L27.5 15.5687V25H12.5Z" fill="white"/>
</svg>
