<svg width="13" height="13" viewBox="0 0 13 13" fill="none" xmlns="http://www.w3.org/2000/svg">
<path d="M9.62136 7.97314C9.62136 8.5426 9.78318 8.76971 10.2064 8.76971C11.1495 8.76971 11.7501 7.56638 11.7501 5.56513C11.7501 2.50631 9.52385 1.04198 6.74443 1.04198C3.8851 1.04198 1.28443 2.96188 1.28443 6.59016C1.28443 10.0557 3.55943 11.9431 7.05318 11.9431C8.23943 11.9431 9.03568 11.8129 10.2538 11.4062L10.5151 12.4956C9.31261 12.8868 8.0275 13 7.03693 13C2.45443 13 0 10.4781 0 6.58949C0 2.66833 2.84443 0 6.76068 0C10.8394 0 13 2.44055 13 5.43429C13 7.97246 12.2044 9.90864 9.70193 9.90864C8.56375 9.90864 7.81693 9.45307 7.71943 8.44363C7.42693 9.56628 6.64693 9.90864 5.59 9.90864C4.17625 9.90864 2.99 8.81784 2.99 6.62203C2.99 4.40926 4.03068 3.04255 5.89943 3.04255C6.89068 3.04255 7.50818 3.43304 7.78307 4.05131L8.255 3.18899H9.62V7.97314H9.62136ZM7.62328 5.82546C7.62328 4.93127 6.95635 4.55637 6.40385 4.55637C5.8026 4.55637 5.13703 5.0438 5.13703 6.47627C5.13703 7.6152 5.64078 8.24974 6.40385 8.24974C6.9401 8.24974 7.62328 7.90806 7.62328 6.96438V5.82546Z" fill="#C4C4C4"/>
</svg>
