<svg width="8" height="13" viewBox="0 0 8 13" fill="none" xmlns="http://www.w3.org/2000/svg">
<path d="M6.8 0H1.2C0.5375 0 0 0.545898 0 1.21875V11.7812C0 12.4541 0.5375 13 1.2 13H6.8C7.4625 13 8 12.4541 8 11.7812V1.21875C8 0.545898 7.4625 0 6.8 0ZM4 12.1875C3.5575 12.1875 3.2 11.8244 3.2 11.375C3.2 10.9256 3.5575 10.5625 4 10.5625C4.4425 10.5625 4.8 10.9256 4.8 11.375C4.8 11.8244 4.4425 12.1875 4 12.1875ZM6.8 9.44531C6.8 9.61289 6.665 9.75 6.5 9.75H1.5C1.335 9.75 1.2 9.61289 1.2 9.44531V1.52344C1.2 1.35586 1.335 1.21875 1.5 1.21875H6.5C6.665 1.21875 6.8 1.35586 6.8 1.52344V9.44531Z" fill="#C4C4C4"/>
</svg>
