<svg width="40" height="40" viewBox="0 0 40 40" fill="none" xmlns="http://www.w3.org/2000/svg">
<circle cx="20" cy="20" r="20" fill="#6FBE2C"/>
<g clip-path="url(#clip0)">
<path d="M21.4666 21.5444C22.6431 20.3847 23.5514 18.9815 24.1278 17.4333L22.4611 15.3389C22.4183 15.2768 22.3954 15.2032 22.3954 15.1278C22.3954 15.0524 22.4183 14.9787 22.4611 14.9166L24.9666 11.0278C25.0554 10.8801 25.1773 10.7551 25.3226 10.6627C25.468 10.5703 25.6329 10.5129 25.8042 10.4951C25.9756 10.4773 26.1487 10.4996 26.3099 10.5602C26.4712 10.6209 26.6161 10.7182 26.7333 10.8444L28.5333 12.6666C28.7912 12.9276 28.9804 13.2483 29.0841 13.6002C29.1878 13.9521 29.2028 14.3242 29.1278 14.6833C28.3879 18.2654 26.6553 21.5671 24.1278 24.2111C21.5751 26.7964 18.3271 28.5854 14.7778 29.3611C14.4242 29.4377 14.0569 29.4217 13.7114 29.3147C13.3658 29.2076 13.0538 29.0131 12.8055 28.75L10.9833 26.8611C10.8632 26.7442 10.7711 26.6017 10.7139 26.4441C10.6566 26.2866 10.6358 26.1182 10.6529 25.9514C10.67 25.7847 10.7246 25.624 10.8126 25.4814C10.9006 25.3387 11.0197 25.2178 11.1611 25.1278L15 22.5389C15.0603 22.4942 15.1333 22.4701 15.2083 22.4701C15.2833 22.4701 15.3564 22.4942 15.4166 22.5389L17.4666 24.2444C18.9838 23.6524 20.3502 22.7301 21.4666 21.5444V21.5444Z" fill="white"/>
</g>
<defs>
<clipPath id="clip0">
<rect width="20" height="20" fill="white" transform="translate(10 30) rotate(-90)"/>
</clipPath>
</defs>
</svg>
