<svg width="40" height="40" viewBox="0 0 40 40" fill="none" xmlns="http://www.w3.org/2000/svg">
<path d="M20 0C8.95422 0 0 8.95422 0 20C0 31.0458 8.95422 40 20 40C31.0458 40 40 31.0458 40 20C40 8.95422 31.0458 0 20 0Z" fill="#40B3E0"/>
<path d="M29.7318 11.5047L26.1594 29.5155C26.1594 29.5155 25.6599 30.7645 24.286 30.165L16.0425 23.845L13.045 22.3963L7.9991 20.6975C7.9991 20.6975 7.22473 20.4228 7.14973 19.8233C7.07473 19.2238 8.0241 18.8991 8.0241 18.8991L28.0829 11.0303C28.0829 11.0303 29.7316 10.306 29.7316 11.505" fill="white"/>
<path d="M15.4091 29.313C15.4091 29.313 15.1685 29.2905 14.8685 28.3411C14.5689 27.3919 13.045 22.3959 13.045 22.3959L25.1604 14.7022C25.1604 14.7022 25.8599 14.2775 25.8349 14.7022C25.8349 14.7022 25.9597 14.7772 25.5849 15.1269C25.2104 15.4767 16.0677 23.695 16.0677 23.695" fill="#D2E5F1"/>
<path d="M19.2033 26.268L15.9428 29.2408C15.9428 29.2408 15.6878 29.4342 15.4091 29.313L16.0334 23.7911" fill="#B5CFE4"/>
</svg>
