<svg width="40" height="40" viewBox="0 0 40 40" fill="none" xmlns="http://www.w3.org/2000/svg">
<circle cx="20" cy="20" r="20" fill="#00E676"/>
<g clip-path="url(#clip0)">
<path d="M15.2861 27.1292L15.6131 27.2908C16.9756 28.0988 18.5014 28.4759 20.0274 28.4759C24.8231 28.4759 28.7468 24.5976 28.7468 19.8574C28.7468 17.5951 27.8203 15.3866 26.1855 13.7706C24.5506 12.1546 22.3707 11.239 20.0274 11.239C15.2317 11.239 11.3078 15.1173 11.3624 19.9113C11.3624 21.5272 11.8528 23.0894 12.6703 24.4359L12.8882 24.7592L12.0164 27.9373L15.2861 27.1292Z" fill="#00E676"/>
<path d="M27.112 12.9087C25.2591 11.0235 22.6977 10 20.0819 10C14.5233 10 10.0545 14.4708 10.109 19.9112C10.109 21.6349 10.5995 23.3048 11.417 24.813L10 29.9302L15.2862 28.5836C16.7576 29.3916 18.3924 29.7686 20.0274 29.7686C25.5316 29.7686 30.0003 25.2978 30.0003 19.8575C30.0003 17.218 28.9648 14.7402 27.112 12.9087H27.112ZM20.0819 28.0988C18.6105 28.0988 17.1391 27.7219 15.8856 26.9677L15.5587 26.8061L12.3979 27.6141L13.2153 24.5438L12.9973 24.2205C10.5995 20.3961 11.7439 15.3327 15.6677 12.9625C19.5914 10.5925 24.6596 11.7237 27.0575 15.602C29.4553 19.4803 28.3109 24.4898 24.3872 26.8599C23.1337 27.6679 21.6078 28.0988 20.0819 28.0988V28.0988ZM24.8776 22.1198L24.2781 21.8505C24.2781 21.8505 23.4062 21.4734 22.8612 21.2041C22.8067 21.2041 22.7523 21.1502 22.6977 21.1502C22.5342 21.1502 22.4252 21.2041 22.3162 21.258C22.3162 21.258 22.2618 21.3118 21.4988 22.1737C21.4443 22.2814 21.3353 22.3353 21.2263 22.3353H21.1718C21.1173 22.3353 21.0084 22.2814 20.9538 22.2276L20.6813 22.1198C20.0819 21.8505 19.537 21.5273 19.1009 21.0964C18.992 20.9886 18.8284 20.8809 18.7195 20.7732C18.338 20.3961 17.9565 19.9652 17.6841 19.4804L17.6295 19.3727C17.5751 19.3188 17.5751 19.2649 17.5205 19.1572C17.5205 19.0495 17.5205 18.9418 17.5751 18.8879C17.5751 18.8879 17.793 18.6185 17.9565 18.457C18.0655 18.3492 18.12 18.1876 18.229 18.0799C18.338 17.9183 18.3925 17.7029 18.338 17.5412C18.2835 17.2719 17.6295 15.8175 17.4661 15.4944C17.357 15.3327 17.2481 15.2789 17.0846 15.225H16.4852C16.3761 15.225 16.2672 15.2789 16.1581 15.2789L16.1036 15.3327C15.9946 15.3866 15.8856 15.4944 15.7766 15.5482C15.6677 15.656 15.6131 15.7636 15.5041 15.8714C15.1227 16.3562 14.9047 16.9487 14.9047 17.5412C14.9047 17.9721 15.0137 18.4031 15.1772 18.7802L15.2317 18.9418C15.7222 19.9652 16.3761 20.8809 17.2481 21.6889L17.4661 21.9043C17.6295 22.0659 17.793 22.1737 17.902 22.3352C19.0465 23.3049 20.3544 24.0051 21.8258 24.3822C21.9893 24.436 22.2073 24.436 22.3708 24.4899H22.9157C23.1882 24.4899 23.5152 24.3822 23.7332 24.2744C23.8966 24.1667 24.0056 24.1667 24.1146 24.059L24.2237 23.9512C24.3327 23.8435 24.4416 23.7897 24.5506 23.6819C24.6596 23.5742 24.7686 23.4665 24.8231 23.3587C24.9321 23.1432 24.9866 22.8739 25.0411 22.6046V22.2276C25.0411 22.2276 24.9866 22.1737 24.8776 22.1198V22.1198Z" fill="white"/>
</g>
<defs>
<clipPath id="clip0">
<rect width="20" height="20" fill="white" transform="translate(10 10)"/>
</clipPath>
</defs>
</svg>
